<?xml version="1.0" encoding="utf-8" standalone="no"?>
<!DOCTYPE svg PUBLIC "-//W3C//DTD SVG 1.1//EN"
  "http://www.w3.org/Graphics/SVG/1.1/DTD/svg11.dtd">
<!-- Created with matplotlib (https://matplotlib.org/) -->
<svg height="288pt" version="1.1" viewBox="0 0 432 288" width="432pt" xmlns="http://www.w3.org/2000/svg" xmlns:xlink="http://www.w3.org/1999/xlink">
 <metadata>
  <rdf:RDF xmlns:cc="http://creativecommons.org/ns#" xmlns:dc="http://purl.org/dc/elements/1.1/" xmlns:rdf="http://www.w3.org/1999/02/22-rdf-syntax-ns#">
   <cc:Work>
    <dc:type rdf:resource="http://purl.org/dc/dcmitype/StillImage"/>
    <dc:date>2021-03-30T01:34:24.918854</dc:date>
    <dc:format>image/svg+xml</dc:format>
    <dc:creator>
     <cc:Agent>
      <dc:title>Matplotlib v3.3.2, https://matplotlib.org/</dc:title>
     </cc:Agent>
    </dc:creator>
   </cc:Work>
  </rdf:RDF>
 </metadata>
 <defs>
  <style type="text/css">*{stroke-linecap:butt;stroke-linejoin:round;}</style>
 </defs>
 <g id="figure_1">
  <g id="patch_1">
   <path d="M 0 288 
L 432 288 
L 432 0 
L 0 0 
z
" style="fill:none;"/>
  </g>
  <g id="axes_1">
   <g id="patch_2">
    <path d="M 54 252 
L 388.8 252 
L 388.8 34.56 
L 54 34.56 
z
" style="fill:#ffffff;"/>
   </g>
   <g id="matplotlib.axis_1">
    <g id="xtick_1">
     <g id="line2d_1">
      <defs>
       <path d="M 0 0 
L 0 3.5 
" id="mc4fa97e7d6" style="stroke:#000000;stroke-width:0.8;"/>
      </defs>
      <g>
       <use style="stroke:#000000;stroke-width:0.8;" x="69.218182" xlink:href="#mc4fa97e7d6" y="252"/>
      </g>
     </g>
     <g id="text_1">
      <!-- 0 -->
      <g transform="translate(66.036932 266.598437)scale(0.1 -0.1)">
       <defs>
        <path d="M 31.78125 66.40625 
Q 24.171875 66.40625 20.328125 58.90625 
Q 16.5 51.421875 16.5 36.375 
Q 16.5 21.390625 20.328125 13.890625 
Q 24.171875 6.390625 31.78125 6.390625 
Q 39.453125 6.390625 43.28125 13.890625 
Q 47.125 21.390625 47.125 36.375 
Q 47.125 51.421875 43.28125 58.90625 
Q 39.453125 66.40625 31.78125 66.40625 
z
M 31.78125 74.21875 
Q 44.046875 74.21875 50.515625 64.515625 
Q 56.984375 54.828125 56.984375 36.375 
Q 56.984375 17.96875 50.515625 8.265625 
Q 44.046875 -1.421875 31.78125 -1.421875 
Q 19.53125 -1.421875 13.0625 8.265625 
Q 6.59375 17.96875 6.59375 36.375 
Q 6.59375 54.828125 13.0625 64.515625 
Q 19.53125 74.21875 31.78125 74.21875 
z
" id="DejaVuSans-48"/>
       </defs>
       <use xlink:href="#DejaVuSans-48"/>
      </g>
     </g>
    </g>
    <g id="xtick_2">
     <g id="line2d_2">
      <g>
       <use style="stroke:#000000;stroke-width:0.8;" x="112.698701" xlink:href="#mc4fa97e7d6" y="252"/>
      </g>
     </g>
     <g id="text_2">
      <!-- 2 -->
      <g transform="translate(109.517451 266.598437)scale(0.1 -0.1)">
       <defs>
        <path d="M 19.1875 8.296875 
L 53.609375 8.296875 
L 53.609375 0 
L 7.328125 0 
L 7.328125 8.296875 
Q 12.9375 14.109375 22.625 23.890625 
Q 32.328125 33.6875 34.8125 36.53125 
Q 39.546875 41.84375 41.421875 45.53125 
Q 43.3125 49.21875 43.3125 52.78125 
Q 43.3125 58.59375 39.234375 62.25 
Q 35.15625 65.921875 28.609375 65.921875 
Q 23.96875 65.921875 18.8125 64.3125 
Q 13.671875 62.703125 7.8125 59.421875 
L 7.8125 69.390625 
Q 13.765625 71.78125 18.9375 73 
Q 24.125 74.21875 28.421875 74.21875 
Q 39.75 74.21875 46.484375 68.546875 
Q 53.21875 62.890625 53.21875 53.421875 
Q 53.21875 48.921875 51.53125 44.890625 
Q 49.859375 40.875 45.40625 35.40625 
Q 44.1875 33.984375 37.640625 27.21875 
Q 31.109375 20.453125 19.1875 8.296875 
z
" id="DejaVuSans-50"/>
       </defs>
       <use xlink:href="#DejaVuSans-50"/>
      </g>
     </g>
    </g>
    <g id="xtick_3">
     <g id="line2d_3">
      <g>
       <use style="stroke:#000000;stroke-width:0.8;" x="156.179221" xlink:href="#mc4fa97e7d6" y="252"/>
      </g>
     </g>
     <g id="text_3">
      <!-- 4 -->
      <g transform="translate(152.997971 266.598437)scale(0.1 -0.1)">
       <defs>
        <path d="M 37.796875 64.3125 
L 12.890625 25.390625 
L 37.796875 25.390625 
z
M 35.203125 72.90625 
L 47.609375 72.90625 
L 47.609375 25.390625 
L 58.015625 25.390625 
L 58.015625 17.1875 
L 47.609375 17.1875 
L 47.609375 0 
L 37.796875 0 
L 37.796875 17.1875 
L 4.890625 17.1875 
L 4.890625 26.703125 
z
" id="DejaVuSans-52"/>
       </defs>
       <use xlink:href="#DejaVuSans-52"/>
      </g>
     </g>
    </g>
    <g id="xtick_4">
     <g id="line2d_4">
      <g>
       <use style="stroke:#000000;stroke-width:0.8;" x="199.65974" xlink:href="#mc4fa97e7d6" y="252"/>
      </g>
     </g>
     <g id="text_4">
      <!-- 6 -->
      <g transform="translate(196.47849 266.598437)scale(0.1 -0.1)">
       <defs>
        <path d="M 33.015625 40.375 
Q 26.375 40.375 22.484375 35.828125 
Q 18.609375 31.296875 18.609375 23.390625 
Q 18.609375 15.53125 22.484375 10.953125 
Q 26.375 6.390625 33.015625 6.390625 
Q 39.65625 6.390625 43.53125 10.953125 
Q 47.40625 15.53125 47.40625 23.390625 
Q 47.40625 31.296875 43.53125 35.828125 
Q 39.65625 40.375 33.015625 40.375 
z
M 52.59375 71.296875 
L 52.59375 62.3125 
Q 48.875 64.0625 45.09375 64.984375 
Q 41.3125 65.921875 37.59375 65.921875 
Q 27.828125 65.921875 22.671875 59.328125 
Q 17.53125 52.734375 16.796875 39.40625 
Q 19.671875 43.65625 24.015625 45.921875 
Q 28.375 48.1875 33.59375 48.1875 
Q 44.578125 48.1875 50.953125 41.515625 
Q 57.328125 34.859375 57.328125 23.390625 
Q 57.328125 12.15625 50.6875 5.359375 
Q 44.046875 -1.421875 33.015625 -1.421875 
Q 20.359375 -1.421875 13.671875 8.265625 
Q 6.984375 17.96875 6.984375 36.375 
Q 6.984375 53.65625 15.1875 63.9375 
Q 23.390625 74.21875 37.203125 74.21875 
Q 40.921875 74.21875 44.703125 73.484375 
Q 48.484375 72.75 52.59375 71.296875 
z
" id="DejaVuSans-54"/>
       </defs>
       <use xlink:href="#DejaVuSans-54"/>
      </g>
     </g>
    </g>
    <g id="xtick_5">
     <g id="line2d_5">
      <g>
       <use style="stroke:#000000;stroke-width:0.8;" x="243.14026" xlink:href="#mc4fa97e7d6" y="252"/>
      </g>
     </g>
     <g id="text_5">
      <!-- 8 -->
      <g transform="translate(239.95901 266.598437)scale(0.1 -0.1)">
       <defs>
        <path d="M 31.78125 34.625 
Q 24.75 34.625 20.71875 30.859375 
Q 16.703125 27.09375 16.703125 20.515625 
Q 16.703125 13.921875 20.71875 10.15625 
Q 24.75 6.390625 31.78125 6.390625 
Q 38.8125 6.390625 42.859375 10.171875 
Q 46.921875 13.96875 46.921875 20.515625 
Q 46.921875 27.09375 42.890625 30.859375 
Q 38.875 34.625 31.78125 34.625 
z
M 21.921875 38.8125 
Q 15.578125 40.375 12.03125 44.71875 
Q 8.5 49.078125 8.5 55.328125 
Q 8.5 64.0625 14.71875 69.140625 
Q 20.953125 74.21875 31.78125 74.21875 
Q 42.671875 74.21875 48.875 69.140625 
Q 55.078125 64.0625 55.078125 55.328125 
Q 55.078125 49.078125 51.53125 44.71875 
Q 48 40.375 41.703125 38.8125 
Q 48.828125 37.15625 52.796875 32.3125 
Q 56.78125 27.484375 56.78125 20.515625 
Q 56.78125 9.90625 50.3125 4.234375 
Q 43.84375 -1.421875 31.78125 -1.421875 
Q 19.734375 -1.421875 13.25 4.234375 
Q 6.78125 9.90625 6.78125 20.515625 
Q 6.78125 27.484375 10.78125 32.3125 
Q 14.796875 37.15625 21.921875 38.8125 
z
M 18.3125 54.390625 
Q 18.3125 48.734375 21.84375 45.5625 
Q 25.390625 42.390625 31.78125 42.390625 
Q 38.140625 42.390625 41.71875 45.5625 
Q 45.3125 48.734375 45.3125 54.390625 
Q 45.3125 60.0625 41.71875 63.234375 
Q 38.140625 66.40625 31.78125 66.40625 
Q 25.390625 66.40625 21.84375 63.234375 
Q 18.3125 60.0625 18.3125 54.390625 
z
" id="DejaVuSans-56"/>
       </defs>
       <use xlink:href="#DejaVuSans-56"/>
      </g>
     </g>
    </g>
    <g id="xtick_6">
     <g id="line2d_6">
      <g>
       <use style="stroke:#000000;stroke-width:0.8;" x="286.620779" xlink:href="#mc4fa97e7d6" y="252"/>
      </g>
     </g>
     <g id="text_6">
      <!-- 10 -->
      <g transform="translate(280.258279 266.598437)scale(0.1 -0.1)">
       <defs>
        <path d="M 12.40625 8.296875 
L 28.515625 8.296875 
L 28.515625 63.921875 
L 10.984375 60.40625 
L 10.984375 69.390625 
L 28.421875 72.90625 
L 38.28125 72.90625 
L 38.28125 8.296875 
L 54.390625 8.296875 
L 54.390625 0 
L 12.40625 0 
z
" id="DejaVuSans-49"/>
       </defs>
       <use xlink:href="#DejaVuSans-49"/>
       <use x="63.623047" xlink:href="#DejaVuSans-48"/>
      </g>
     </g>
    </g>
    <g id="xtick_7">
     <g id="line2d_7">
      <g>
       <use style="stroke:#000000;stroke-width:0.8;" x="330.101299" xlink:href="#mc4fa97e7d6" y="252"/>
      </g>
     </g>
     <g id="text_7">
      <!-- 12 -->
      <g transform="translate(323.738799 266.598437)scale(0.1 -0.1)">
       <use xlink:href="#DejaVuSans-49"/>
       <use x="63.623047" xlink:href="#DejaVuSans-50"/>
      </g>
     </g>
    </g>
    <g id="xtick_8">
     <g id="line2d_8">
      <g>
       <use style="stroke:#000000;stroke-width:0.8;" x="373.581818" xlink:href="#mc4fa97e7d6" y="252"/>
      </g>
     </g>
     <g id="text_8">
      <!-- 14 -->
      <g transform="translate(367.219318 266.598437)scale(0.1 -0.1)">
       <use xlink:href="#DejaVuSans-49"/>
       <use x="63.623047" xlink:href="#DejaVuSans-52"/>
      </g>
     </g>
    </g>
    <g id="text_9">
     <!-- x -->
     <g transform="translate(218.440625 280.276563)scale(0.1 -0.1)">
      <defs>
       <path d="M 54.890625 54.6875 
L 35.109375 28.078125 
L 55.90625 0 
L 45.3125 0 
L 29.390625 21.484375 
L 13.484375 0 
L 2.875 0 
L 24.125 28.609375 
L 4.6875 54.6875 
L 15.28125 54.6875 
L 29.78125 35.203125 
L 44.28125 54.6875 
z
" id="DejaVuSans-120"/>
      </defs>
      <use xlink:href="#DejaVuSans-120"/>
     </g>
    </g>
   </g>
   <g id="matplotlib.axis_2">
    <g id="ytick_1">
     <g id="line2d_9">
      <defs>
       <path d="M 0 0 
L -3.5 0 
" id="m7471445e6e" style="stroke:#000000;stroke-width:0.8;"/>
      </defs>
      <g>
       <use style="stroke:#000000;stroke-width:0.8;" x="54" xlink:href="#m7471445e6e" y="226.262165"/>
      </g>
     </g>
     <g id="text_10">
      <!-- 0 -->
      <g transform="translate(40.6375 230.061384)scale(0.1 -0.1)">
       <use xlink:href="#DejaVuSans-48"/>
      </g>
     </g>
    </g>
    <g id="ytick_2">
     <g id="line2d_10">
      <g>
       <use style="stroke:#000000;stroke-width:0.8;" x="54" xlink:href="#m7471445e6e" y="199.901244"/>
      </g>
     </g>
     <g id="text_11">
      <!-- 1 -->
      <g transform="translate(40.6375 203.700463)scale(0.1 -0.1)">
       <use xlink:href="#DejaVuSans-49"/>
      </g>
     </g>
    </g>
    <g id="ytick_3">
     <g id="line2d_11">
      <g>
       <use style="stroke:#000000;stroke-width:0.8;" x="54" xlink:href="#m7471445e6e" y="173.540323"/>
      </g>
     </g>
     <g id="text_12">
      <!-- 2 -->
      <g transform="translate(40.6375 177.339542)scale(0.1 -0.1)">
       <use xlink:href="#DejaVuSans-50"/>
      </g>
     </g>
    </g>
    <g id="ytick_4">
     <g id="line2d_12">
      <g>
       <use style="stroke:#000000;stroke-width:0.8;" x="54" xlink:href="#m7471445e6e" y="147.179402"/>
      </g>
     </g>
     <g id="text_13">
      <!-- 3 -->
      <g transform="translate(40.6375 150.978621)scale(0.1 -0.1)">
       <defs>
        <path d="M 40.578125 39.3125 
Q 47.65625 37.796875 51.625 33 
Q 55.609375 28.21875 55.609375 21.1875 
Q 55.609375 10.40625 48.1875 4.484375 
Q 40.765625 -1.421875 27.09375 -1.421875 
Q 22.515625 -1.421875 17.65625 -0.515625 
Q 12.796875 0.390625 7.625 2.203125 
L 7.625 11.71875 
Q 11.71875 9.328125 16.59375 8.109375 
Q 21.484375 6.890625 26.8125 6.890625 
Q 36.078125 6.890625 40.9375 10.546875 
Q 45.796875 14.203125 45.796875 21.1875 
Q 45.796875 27.640625 41.28125 31.265625 
Q 36.765625 34.90625 28.71875 34.90625 
L 20.21875 34.90625 
L 20.21875 43.015625 
L 29.109375 43.015625 
Q 36.375 43.015625 40.234375 45.921875 
Q 44.09375 48.828125 44.09375 54.296875 
Q 44.09375 59.90625 40.109375 62.90625 
Q 36.140625 65.921875 28.71875 65.921875 
Q 24.65625 65.921875 20.015625 65.03125 
Q 15.375 64.15625 9.8125 62.3125 
L 9.8125 71.09375 
Q 15.4375 72.65625 20.34375 73.4375 
Q 25.25 74.21875 29.59375 74.21875 
Q 40.828125 74.21875 47.359375 69.109375 
Q 53.90625 64.015625 53.90625 55.328125 
Q 53.90625 49.265625 50.4375 45.09375 
Q 46.96875 40.921875 40.578125 39.3125 
z
" id="DejaVuSans-51"/>
       </defs>
       <use xlink:href="#DejaVuSans-51"/>
      </g>
     </g>
    </g>
    <g id="ytick_5">
     <g id="line2d_13">
      <g>
       <use style="stroke:#000000;stroke-width:0.8;" x="54" xlink:href="#m7471445e6e" y="120.818481"/>
      </g>
     </g>
     <g id="text_14">
      <!-- 4 -->
      <g transform="translate(40.6375 124.6177)scale(0.1 -0.1)">
       <use xlink:href="#DejaVuSans-52"/>
      </g>
     </g>
    </g>
    <g id="ytick_6">
     <g id="line2d_14">
      <g>
       <use style="stroke:#000000;stroke-width:0.8;" x="54" xlink:href="#m7471445e6e" y="94.45756"/>
      </g>
     </g>
     <g id="text_15">
      <!-- 5 -->
      <g transform="translate(40.6375 98.256779)scale(0.1 -0.1)">
       <defs>
        <path d="M 10.796875 72.90625 
L 49.515625 72.90625 
L 49.515625 64.59375 
L 19.828125 64.59375 
L 19.828125 46.734375 
Q 21.96875 47.46875 24.109375 47.828125 
Q 26.265625 48.1875 28.421875 48.1875 
Q 40.625 48.1875 47.75 41.5 
Q 54.890625 34.8125 54.890625 23.390625 
Q 54.890625 11.625 47.5625 5.09375 
Q 40.234375 -1.421875 26.90625 -1.421875 
Q 22.3125 -1.421875 17.546875 -0.640625 
Q 12.796875 0.140625 7.71875 1.703125 
L 7.71875 11.625 
Q 12.109375 9.234375 16.796875 8.0625 
Q 21.484375 6.890625 26.703125 6.890625 
Q 35.15625 6.890625 40.078125 11.328125 
Q 45.015625 15.765625 45.015625 23.390625 
Q 45.015625 31 40.078125 35.4375 
Q 35.15625 39.890625 26.703125 39.890625 
Q 22.75 39.890625 18.8125 39.015625 
Q 14.890625 38.140625 10.796875 36.28125 
z
" id="DejaVuSans-53"/>
       </defs>
       <use xlink:href="#DejaVuSans-53"/>
      </g>
     </g>
    </g>
    <g id="ytick_7">
     <g id="line2d_15">
      <g>
       <use style="stroke:#000000;stroke-width:0.8;" x="54" xlink:href="#m7471445e6e" y="68.096639"/>
      </g>
     </g>
     <g id="text_16">
      <!-- 6 -->
      <g transform="translate(40.6375 71.895858)scale(0.1 -0.1)">
       <use xlink:href="#DejaVuSans-54"/>
      </g>
     </g>
    </g>
    <g id="ytick_8">
     <g id="line2d_16">
      <g>
       <use style="stroke:#000000;stroke-width:0.8;" x="54" xlink:href="#m7471445e6e" y="41.735718"/>
      </g>
     </g>
     <g id="text_17">
      <!-- 7 -->
      <g transform="translate(40.6375 45.534937)scale(0.1 -0.1)">
       <defs>
        <path d="M 8.203125 72.90625 
L 55.078125 72.90625 
L 55.078125 68.703125 
L 28.609375 0 
L 18.3125 0 
L 43.21875 64.59375 
L 8.203125 64.59375 
z
" id="DejaVuSans-55"/>
       </defs>
       <use xlink:href="#DejaVuSans-55"/>
      </g>
     </g>
    </g>
    <g id="text_18">
     <!-- y -->
     <g transform="translate(34.557813 146.239375)rotate(-90)scale(0.1 -0.1)">
      <defs>
       <path d="M 32.171875 -5.078125 
Q 28.375 -14.84375 24.75 -17.8125 
Q 21.140625 -20.796875 15.09375 -20.796875 
L 7.90625 -20.796875 
L 7.90625 -13.28125 
L 13.1875 -13.28125 
Q 16.890625 -13.28125 18.9375 -11.515625 
Q 21 -9.765625 23.484375 -3.21875 
L 25.09375 0.875 
L 2.984375 54.6875 
L 12.5 54.6875 
L 29.59375 11.921875 
L 46.6875 54.6875 
L 56.203125 54.6875 
z
" id="DejaVuSans-121"/>
      </defs>
      <use xlink:href="#DejaVuSans-121"/>
     </g>
    </g>
   </g>
   <g id="line2d_17">
    <defs>
     <path d="M 0 1.5 
C 0.397805 1.5 0.77937 1.341951 1.06066 1.06066 
C 1.341951 0.77937 1.5 0.397805 1.5 0 
C 1.5 -0.397805 1.341951 -0.77937 1.06066 -1.06066 
C 0.77937 -1.341951 0.397805 -1.5 0 -1.5 
C -0.397805 -1.5 -0.77937 -1.341951 -1.06066 -1.06066 
C -1.341951 -0.77937 -1.5 -0.397805 -1.5 0 
C -1.5 0.397805 -1.341951 0.77937 -1.06066 1.06066 
C -0.77937 1.341951 -0.397805 1.5 0 1.5 
z
" id="mb8661bf795" style="stroke:#1f77b4;"/>
    </defs>
    <g clip-path="url(#p8146972eec)">
     <use style="fill:#1f77b4;stroke:#1f77b4;" x="69.218182" xlink:href="#mb8661bf795" y="213.136602"/>
     <use style="fill:#1f77b4;stroke:#1f77b4;" x="93.374026" xlink:href="#mb8661bf795" y="202.165519"/>
     <use style="fill:#1f77b4;stroke:#1f77b4;" x="117.52987" xlink:href="#mb8661bf795" y="212.108293"/>
     <use style="fill:#1f77b4;stroke:#1f77b4;" x="141.685714" xlink:href="#mb8661bf795" y="219.222309"/>
     <use style="fill:#1f77b4;stroke:#1f77b4;" x="165.841558" xlink:href="#mb8661bf795" y="203.019823"/>
     <use style="fill:#1f77b4;stroke:#1f77b4;" x="189.997403" xlink:href="#mb8661bf795" y="195.315838"/>
     <use style="fill:#1f77b4;stroke:#1f77b4;" x="214.153247" xlink:href="#mb8661bf795" y="174.48609"/>
     <use style="fill:#1f77b4;stroke:#1f77b4;" x="238.309091" xlink:href="#mb8661bf795" y="176.841079"/>
     <use style="fill:#1f77b4;stroke:#1f77b4;" x="262.464935" xlink:href="#mb8661bf795" y="183.153432"/>
     <use style="fill:#1f77b4;stroke:#1f77b4;" x="286.620779" xlink:href="#mb8661bf795" y="174.492826"/>
    </g>
   </g>
   <g id="line2d_18">
    <path clip-path="url(#p8146972eec)" d="M 69.218182 213.136602 
L 93.374026 202.165519 
L 117.52987 212.108293 
L 141.685714 219.222309 
L 165.841558 203.019823 
L 189.997403 195.315838 
L 214.153247 174.48609 
L 238.309091 176.841079 
L 262.464935 183.153432 
L 286.620779 174.492826 
" style="fill:none;stroke:#1f77b4;stroke-linecap:square;stroke-opacity:0.1;stroke-width:1.5;"/>
   </g>
   <g id="line2d_19">
    <defs>
     <path d="M 0 1.5 
C 0.397805 1.5 0.77937 1.341951 1.06066 1.06066 
C 1.341951 0.77937 1.5 0.397805 1.5 0 
C 1.5 -0.397805 1.341951 -0.77937 1.06066 -1.06066 
C 0.77937 -1.341951 0.397805 -1.5 0 -1.5 
C -0.397805 -1.5 -0.77937 -1.341951 -1.06066 -1.06066 
C -1.341951 -0.77937 -1.5 -0.397805 -1.5 0 
C -1.5 0.397805 -1.341951 0.77937 -1.06066 1.06066 
C -0.77937 1.341951 -0.397805 1.5 0 1.5 
z
" id="m3fc9f54bb0" style="stroke:#ff7f0e;"/>
    </defs>
    <g clip-path="url(#p8146972eec)">
     <use style="fill:#ff7f0e;stroke:#ff7f0e;" x="69.218182" xlink:href="#m3fc9f54bb0" y="183.276312"/>
     <use style="fill:#ff7f0e;stroke:#ff7f0e;" x="93.374026" xlink:href="#m3fc9f54bb0" y="151.9773"/>
     <use style="fill:#ff7f0e;stroke:#ff7f0e;" x="117.52987" xlink:href="#m3fc9f54bb0" y="166.380279"/>
     <use style="fill:#ff7f0e;stroke:#ff7f0e;" x="141.685714" xlink:href="#m3fc9f54bb0" y="152.44266"/>
     <use style="fill:#ff7f0e;stroke:#ff7f0e;" x="165.841558" xlink:href="#m3fc9f54bb0" y="134.593778"/>
     <use style="fill:#ff7f0e;stroke:#ff7f0e;" x="189.997403" xlink:href="#m3fc9f54bb0" y="175.135878"/>
     <use style="fill:#ff7f0e;stroke:#ff7f0e;" x="214.153247" xlink:href="#m3fc9f54bb0" y="126.268203"/>
     <use style="fill:#ff7f0e;stroke:#ff7f0e;" x="238.309091" xlink:href="#m3fc9f54bb0" y="147.985628"/>
     <use style="fill:#ff7f0e;stroke:#ff7f0e;" x="262.464935" xlink:href="#m3fc9f54bb0" y="155.209072"/>
     <use style="fill:#ff7f0e;stroke:#ff7f0e;" x="286.620779" xlink:href="#m3fc9f54bb0" y="138.706758"/>
    </g>
   </g>
   <g id="line2d_20">
    <path clip-path="url(#p8146972eec)" d="M 69.218182 183.276312 
L 93.374026 151.9773 
L 117.52987 166.380279 
L 141.685714 152.44266 
L 165.841558 134.593778 
L 189.997403 175.135878 
L 214.153247 126.268203 
L 238.309091 147.985628 
L 262.464935 155.209072 
L 286.620779 138.706758 
" style="fill:none;stroke:#ff7f0e;stroke-linecap:square;stroke-opacity:0.1;stroke-width:1.5;"/>
   </g>
   <g id="line2d_21">
    <defs>
     <path d="M 0 1.5 
C 0.397805 1.5 0.77937 1.341951 1.06066 1.06066 
C 1.341951 0.77937 1.5 0.397805 1.5 0 
C 1.5 -0.397805 1.341951 -0.77937 1.06066 -1.06066 
C 0.77937 -1.341951 0.397805 -1.5 0 -1.5 
C -0.397805 -1.5 -0.77937 -1.341951 -1.06066 -1.06066 
C -1.341951 -0.77937 -1.5 -0.397805 -1.5 0 
C -1.5 0.397805 -1.341951 0.77937 -1.06066 1.06066 
C -0.77937 1.341951 -0.397805 1.5 0 1.5 
z
" id="mffbdc3789a" style="stroke:#2ca02c;"/>
    </defs>
    <g clip-path="url(#p8146972eec)">
     <use style="fill:#2ca02c;stroke:#2ca02c;" x="112.698701" xlink:href="#mffbdc3789a" y="217.356502"/>
     <use style="fill:#2ca02c;stroke:#2ca02c;" x="136.854545" xlink:href="#mffbdc3789a" y="242.116364"/>
     <use style="fill:#2ca02c;stroke:#2ca02c;" x="161.01039" xlink:href="#mffbdc3789a" y="212.081637"/>
     <use style="fill:#2ca02c;stroke:#2ca02c;" x="185.166234" xlink:href="#mffbdc3789a" y="206.871402"/>
     <use style="fill:#2ca02c;stroke:#2ca02c;" x="209.322078" xlink:href="#mffbdc3789a" y="200.121374"/>
     <use style="fill:#2ca02c;stroke:#2ca02c;" x="233.477922" xlink:href="#mffbdc3789a" y="176.122975"/>
     <use style="fill:#2ca02c;stroke:#2ca02c;" x="257.633766" xlink:href="#mffbdc3789a" y="167.763297"/>
     <use style="fill:#2ca02c;stroke:#2ca02c;" x="281.78961" xlink:href="#mffbdc3789a" y="171.235527"/>
     <use style="fill:#2ca02c;stroke:#2ca02c;" x="305.945455" xlink:href="#mffbdc3789a" y="193.660423"/>
     <use style="fill:#2ca02c;stroke:#2ca02c;" x="330.101299" xlink:href="#mffbdc3789a" y="158.580561"/>
    </g>
   </g>
   <g id="line2d_22">
    <path clip-path="url(#p8146972eec)" d="M 112.698701 217.356502 
L 136.854545 242.116364 
L 161.01039 212.081637 
L 185.166234 206.871402 
L 209.322078 200.121374 
L 233.477922 176.122975 
L 257.633766 167.763297 
L 281.78961 171.235527 
L 305.945455 193.660423 
L 330.101299 158.580561 
" style="fill:none;stroke:#2ca02c;stroke-linecap:square;stroke-opacity:0.1;stroke-width:1.5;"/>
   </g>
   <g id="line2d_23">
    <defs>
     <path d="M 0 1.5 
C 0.397805 1.5 0.77937 1.341951 1.06066 1.06066 
C 1.341951 0.77937 1.5 0.397805 1.5 0 
C 1.5 -0.397805 1.341951 -0.77937 1.06066 -1.06066 
C 0.77937 -1.341951 0.397805 -1.5 0 -1.5 
C -0.397805 -1.5 -0.77937 -1.341951 -1.06066 -1.06066 
C -1.341951 -0.77937 -1.5 -0.397805 -1.5 0 
C -1.5 0.397805 -1.341951 0.77937 -1.06066 1.06066 
C -0.77937 1.341951 -0.397805 1.5 0 1.5 
z
" id="m1327767303" style="stroke:#d62728;"/>
    </defs>
    <g clip-path="url(#p8146972eec)">
     <use style="fill:#d62728;stroke:#d62728;" x="112.698701" xlink:href="#m1327767303" y="172.513577"/>
     <use style="fill:#d62728;stroke:#d62728;" x="136.854545" xlink:href="#m1327767303" y="165.52076"/>
     <use style="fill:#d62728;stroke:#d62728;" x="161.01039" xlink:href="#m1327767303" y="145.425062"/>
     <use style="fill:#d62728;stroke:#d62728;" x="185.166234" xlink:href="#m1327767303" y="168.66499"/>
     <use style="fill:#d62728;stroke:#d62728;" x="209.322078" xlink:href="#m1327767303" y="122.06523"/>
     <use style="fill:#d62728;stroke:#d62728;" x="233.477922" xlink:href="#m1327767303" y="143.038502"/>
     <use style="fill:#d62728;stroke:#d62728;" x="257.633766" xlink:href="#m1327767303" y="105.058347"/>
     <use style="fill:#d62728;stroke:#d62728;" x="281.78961" xlink:href="#m1327767303" y="119.989998"/>
     <use style="fill:#d62728;stroke:#d62728;" x="305.945455" xlink:href="#m1327767303" y="97.396383"/>
     <use style="fill:#d62728;stroke:#d62728;" x="330.101299" xlink:href="#m1327767303" y="125.881088"/>
    </g>
   </g>
   <g id="line2d_24">
    <path clip-path="url(#p8146972eec)" d="M 112.698701 172.513577 
L 136.854545 165.52076 
L 161.01039 145.425062 
L 185.166234 168.66499 
L 209.322078 122.06523 
L 233.477922 143.038502 
L 257.633766 105.058347 
L 281.78961 119.989998 
L 305.945455 97.396383 
L 330.101299 125.881088 
" style="fill:none;stroke:#d62728;stroke-linecap:square;stroke-opacity:0.1;stroke-width:1.5;"/>
   </g>
   <g id="line2d_25">
    <defs>
     <path d="M 0 1.5 
C 0.397805 1.5 0.77937 1.341951 1.06066 1.06066 
C 1.341951 0.77937 1.5 0.397805 1.5 0 
C 1.5 -0.397805 1.341951 -0.77937 1.06066 -1.06066 
C 0.77937 -1.341951 0.397805 -1.5 0 -1.5 
C -0.397805 -1.5 -0.77937 -1.341951 -1.06066 -1.06066 
C -1.341951 -0.77937 -1.5 -0.397805 -1.5 0 
C -1.5 0.397805 -1.341951 0.77937 -1.06066 1.06066 
C -0.77937 1.341951 -0.397805 1.5 0 1.5 
z
" id="mad6f8aaa5a" style="stroke:#9467bd;"/>
    </defs>
    <g clip-path="url(#p8146972eec)">
     <use style="fill:#9467bd;stroke:#9467bd;" x="156.179221" xlink:href="#mad6f8aaa5a" y="196.172366"/>
     <use style="fill:#9467bd;stroke:#9467bd;" x="180.335065" xlink:href="#mad6f8aaa5a" y="190.96767"/>
     <use style="fill:#9467bd;stroke:#9467bd;" x="204.490909" xlink:href="#mad6f8aaa5a" y="206.650149"/>
     <use style="fill:#9467bd;stroke:#9467bd;" x="228.646753" xlink:href="#mad6f8aaa5a" y="160.777097"/>
     <use style="fill:#9467bd;stroke:#9467bd;" x="252.802597" xlink:href="#mad6f8aaa5a" y="165.939352"/>
     <use style="fill:#9467bd;stroke:#9467bd;" x="276.958442" xlink:href="#mad6f8aaa5a" y="167.361889"/>
     <use style="fill:#9467bd;stroke:#9467bd;" x="301.114286" xlink:href="#mad6f8aaa5a" y="177.001109"/>
     <use style="fill:#9467bd;stroke:#9467bd;" x="325.27013" xlink:href="#mad6f8aaa5a" y="156.988273"/>
     <use style="fill:#9467bd;stroke:#9467bd;" x="349.425974" xlink:href="#mad6f8aaa5a" y="162.55232"/>
     <use style="fill:#9467bd;stroke:#9467bd;" x="373.581818" xlink:href="#mad6f8aaa5a" y="169.265551"/>
    </g>
   </g>
   <g id="line2d_26">
    <path clip-path="url(#p8146972eec)" d="M 156.179221 196.172366 
L 180.335065 190.96767 
L 204.490909 206.650149 
L 228.646753 160.777097 
L 252.802597 165.939352 
L 276.958442 167.361889 
L 301.114286 177.001109 
L 325.27013 156.988273 
L 349.425974 162.55232 
L 373.581818 169.265551 
" style="fill:none;stroke:#9467bd;stroke-linecap:square;stroke-opacity:0.1;stroke-width:1.5;"/>
   </g>
   <g id="line2d_27">
    <defs>
     <path d="M 0 1.5 
C 0.397805 1.5 0.77937 1.341951 1.06066 1.06066 
C 1.341951 0.77937 1.5 0.397805 1.5 0 
C 1.5 -0.397805 1.341951 -0.77937 1.06066 -1.06066 
C 0.77937 -1.341951 0.397805 -1.5 0 -1.5 
C -0.397805 -1.5 -0.77937 -1.341951 -1.06066 -1.06066 
C -1.341951 -0.77937 -1.5 -0.397805 -1.5 0 
C -1.5 0.397805 -1.341951 0.77937 -1.06066 1.06066 
C -0.77937 1.341951 -0.397805 1.5 0 1.5 
z
" id="m43c57aa475" style="stroke:#8c564b;"/>
    </defs>
    <g clip-path="url(#p8146972eec)">
     <use style="fill:#8c564b;stroke:#8c564b;" x="156.179221" xlink:href="#m43c57aa475" y="160.616727"/>
     <use style="fill:#8c564b;stroke:#8c564b;" x="180.335065" xlink:href="#m43c57aa475" y="144.021097"/>
     <use style="fill:#8c564b;stroke:#8c564b;" x="204.490909" xlink:href="#m43c57aa475" y="138.004205"/>
     <use style="fill:#8c564b;stroke:#8c564b;" x="228.646753" xlink:href="#m43c57aa475" y="129.797142"/>
     <use style="fill:#8c564b;stroke:#8c564b;" x="252.802597" xlink:href="#m43c57aa475" y="113.616387"/>
     <use style="fill:#8c564b;stroke:#8c564b;" x="276.958442" xlink:href="#m43c57aa475" y="129.966268"/>
     <use style="fill:#8c564b;stroke:#8c564b;" x="301.114286" xlink:href="#m43c57aa475" y="126.07727"/>
     <use style="fill:#8c564b;stroke:#8c564b;" x="325.27013" xlink:href="#m43c57aa475" y="133.753955"/>
     <use style="fill:#8c564b;stroke:#8c564b;" x="349.425974" xlink:href="#m43c57aa475" y="121.375765"/>
     <use style="fill:#8c564b;stroke:#8c564b;" x="373.581818" xlink:href="#m43c57aa475" y="94.44701"/>
    </g>
   </g>
   <g id="line2d_28">
    <path clip-path="url(#p8146972eec)" d="M 156.179221 160.616727 
L 180.335065 144.021097 
L 204.490909 138.004205 
L 228.646753 129.797142 
L 252.802597 113.616387 
L 276.958442 129.966268 
L 301.114286 126.07727 
L 325.27013 133.753955 
L 349.425974 121.375765 
L 373.581818 94.44701 
" style="fill:none;stroke:#8c564b;stroke-linecap:square;stroke-opacity:0.1;stroke-width:1.5;"/>
   </g>
   <g id="line2d_29">
    <defs>
     <path d="M 0 1.5 
C 0.397805 1.5 0.77937 1.341951 1.06066 1.06066 
C 1.341951 0.77937 1.5 0.397805 1.5 0 
C 1.5 -0.397805 1.341951 -0.77937 1.06066 -1.06066 
C 0.77937 -1.341951 0.397805 -1.5 0 -1.5 
C -0.397805 -1.5 -0.77937 -1.341951 -1.06066 -1.06066 
C -1.341951 -0.77937 -1.5 -0.397805 -1.5 0 
C -1.5 0.397805 -1.341951 0.77937 -1.06066 1.06066 
C -0.77937 1.341951 -0.397805 1.5 0 1.5 
z
" id="m45b0f5ec3a" style="stroke:#e377c2;"/>
    </defs>
    <g clip-path="url(#p8146972eec)">
     <use style="fill:#e377c2;stroke:#e377c2;" x="156.179221" xlink:href="#m45b0f5ec3a" y="99.739973"/>
     <use style="fill:#e377c2;stroke:#e377c2;" x="180.335065" xlink:href="#m45b0f5ec3a" y="91.858447"/>
     <use style="fill:#e377c2;stroke:#e377c2;" x="204.490909" xlink:href="#m45b0f5ec3a" y="85.209574"/>
     <use style="fill:#e377c2;stroke:#e377c2;" x="228.646753" xlink:href="#m45b0f5ec3a" y="81.156107"/>
     <use style="fill:#e377c2;stroke:#e377c2;" x="252.802597" xlink:href="#m45b0f5ec3a" y="90.118316"/>
     <use style="fill:#e377c2;stroke:#e377c2;" x="276.958442" xlink:href="#m45b0f5ec3a" y="74.597571"/>
     <use style="fill:#e377c2;stroke:#e377c2;" x="301.114286" xlink:href="#m45b0f5ec3a" y="74.646067"/>
     <use style="fill:#e377c2;stroke:#e377c2;" x="325.27013" xlink:href="#m45b0f5ec3a" y="68.003799"/>
     <use style="fill:#e377c2;stroke:#e377c2;" x="349.425974" xlink:href="#m45b0f5ec3a" y="44.443636"/>
     <use style="fill:#e377c2;stroke:#e377c2;" x="373.581818" xlink:href="#m45b0f5ec3a" y="52.906115"/>
    </g>
   </g>
   <g id="line2d_30">
    <path clip-path="url(#p8146972eec)" d="M 156.179221 99.739973 
L 180.335065 91.858447 
L 204.490909 85.209574 
L 228.646753 81.156107 
L 252.802597 90.118316 
L 276.958442 74.597571 
L 301.114286 74.646067 
L 325.27013 68.003799 
L 349.425974 44.443636 
L 373.581818 52.906115 
" style="fill:none;stroke:#e377c2;stroke-linecap:square;stroke-opacity:0.1;stroke-width:1.5;"/>
   </g>
   <g id="patch_3">
    <path d="M 54 252 
L 54 34.56 
" style="fill:none;stroke:#000000;stroke-linecap:square;stroke-linejoin:miter;stroke-width:0.8;"/>
   </g>
   <g id="patch_4">
    <path d="M 388.8 252 
L 388.8 34.56 
" style="fill:none;stroke:#000000;stroke-linecap:square;stroke-linejoin:miter;stroke-width:0.8;"/>
   </g>
   <g id="patch_5">
    <path d="M 54 252 
L 388.8 252 
" style="fill:none;stroke:#000000;stroke-linecap:square;stroke-linejoin:miter;stroke-width:0.8;"/>
   </g>
   <g id="patch_6">
    <path d="M 54 34.56 
L 388.8 34.56 
" style="fill:none;stroke:#000000;stroke-linecap:square;stroke-linejoin:miter;stroke-width:0.8;"/>
   </g>
  </g>
 </g>
 <defs>
  <clipPath id="p8146972eec">
   <rect height="217.44" width="334.8" x="54" y="34.56"/>
  </clipPath>
 </defs>
</svg>
