<?xml version="1.0" encoding="utf-8"?>
<!-- Generator: Adobe Illustrator 24.0.1, SVG Export Plug-In . SVG Version: 6.00 Build 0)  -->
<svg version="1.1" xmlns="http://www.w3.org/2000/svg" xmlns:xlink="http://www.w3.org/1999/xlink" x="0px" y="0px"
	 width="819.609px" height="414.12px" viewBox="0 0 819.609 414.12" style="enable-background:new 0 0 819.609 414.12;"
	 xml:space="preserve">
<style type="text/css">
	.st0{fill:#00A8D6;}
	.st1{opacity:0.44;}
	.st2{fill:#FAA31B;}
	.st3{fill:#333333;}
	.st4{opacity:0.7;fill:#00A8D6;}
	.st5{opacity:0.7;}
	.st6{fill:#FFFFFF;}
</style>
<g id="Layer_1">
</g>
<g id="Layer_2">
	<g>
		<path d="M44.924,79.747h1.422v12.604h-1.422V79.747z"/>
		<path d="M50.036,79.747h1.332l7.94,10.101V79.747h1.387v12.604h-1.134l-8.139-10.335v10.335h-1.386V79.747z"/>
		<path d="M64.255,79.747h4.717c2.845,0,4.717,1.513,4.717,3.998v0.036c0,2.719-2.269,4.124-4.952,4.124h-3.061v4.447h-1.422V79.747
			z M68.792,86.607c2.089,0,3.457-1.116,3.457-2.773v-0.036c0-1.8-1.35-2.737-3.385-2.737h-3.187v5.546H68.792z"/>
		<path d="M76.081,87.075v-7.329h1.422v7.238c0,2.719,1.458,4.25,3.853,4.25c2.323,0,3.799-1.405,3.799-4.159v-7.329h1.422v7.22
			c0,3.673-2.106,5.582-5.257,5.582C78.206,92.549,76.081,90.64,76.081,87.075z"/>
		<path d="M93.271,81.061h-4.231v-1.314h9.903v1.314h-4.231v11.29h-1.44V81.061z"/>
		<path d="M107.005,79.747h4.375c3.961,0,6.698,2.719,6.698,6.266v0.036c0,3.547-2.737,6.302-6.698,6.302h-4.375V79.747z
			 M108.427,81.061v9.975h2.953c3.187,0,5.222-2.161,5.222-4.952v-0.036c0-2.791-2.035-4.988-5.222-4.988H108.427z"/>
		<path d="M124.917,79.657h1.333l5.744,12.694h-1.53l-1.477-3.331h-6.86l-1.495,3.331h-1.458L124.917,79.657z M128.428,87.723
			l-2.863-6.41l-2.881,6.41H128.428z"/>
		<path d="M136.184,81.061h-4.231v-1.314h9.903v1.314h-4.231v11.29h-1.44V81.061z"/>
		<path d="M147.56,79.657h1.333l5.744,12.694h-1.53l-1.477-3.331h-6.86l-1.495,3.331h-1.458L147.56,79.657z M151.071,87.723
			l-2.863-6.41l-2.881,6.41H151.071z"/>
	</g>
	<g>
		<path d="M211.106,21.803h2.705c1.873,0,3.394,0.528,4.37,1.489c0.8,0.8,1.216,1.856,1.216,3.217c0,1.712-0.624,3.217-1.761,4.37
			c-1.345,1.345-3.361,2.129-5.746,2.129h-3.794L211.106,21.803z M213.731,22.971h-1.665l-2.385,8.868h2.369
			c1.873,0,3.49-0.624,4.626-1.761c0.896-0.896,1.409-2.113,1.409-3.489c0-1.057-0.336-1.889-0.944-2.481
			C216.404,23.372,215.22,22.971,213.731,22.971z"/>
		<path d="M227.14,21.723h1.216l2.081,11.285h-1.297l-0.512-2.961h-6.114l-2.113,2.961h-1.393L227.14,21.723z M228.42,28.894
			l-1.008-5.73l-4.098,5.73H228.42z"/>
		<path d="M236.371,22.971h-3.777l0.32-1.168h8.819l-0.32,1.168h-3.777l-2.689,10.036h-1.265L236.371,22.971z"/>
		<path d="M246.612,21.723h1.216l2.081,11.285h-1.297l-0.512-2.961h-6.114l-2.113,2.961h-1.393L246.612,21.723z M247.892,28.894
			l-1.008-5.73l-4.098,5.73H247.892z"/>
		<path d="M211.106,41.003h3.505c1.409,0,2.481,0.336,3.202,1.041c0.512,0.528,0.8,1.216,0.8,2.081c0,1.073-0.384,1.953-1.057,2.625
			c-0.944,0.96-2.529,1.472-4.466,1.472h-2.657l-1.072,3.986h-1.265L211.106,41.003z M214.563,42.172h-2.513l-1.312,4.93h2.417
			c1.569,0,2.753-0.384,3.441-1.073c0.464-0.464,0.705-1.072,0.705-1.825c0-0.544-0.16-0.976-0.512-1.328
			C216.324,42.412,215.572,42.172,214.563,42.172z"/>
		<path d="M224.227,47.854h-0.272h-2.753l-1.168,4.354h-1.265l3.009-11.205h4.034c1.409,0,2.465,0.352,3.153,1.024
			c0.48,0.496,0.736,1.168,0.736,1.937c0,0.976-0.368,1.792-0.992,2.433c-0.736,0.736-1.921,1.153-3.105,1.345l2.305,4.466h-1.457
			L224.227,47.854z M224.547,46.718c1.473,0,2.561-0.4,3.186-1.024c0.432-0.448,0.672-0.977,0.672-1.633
			c0-0.48-0.16-0.912-0.464-1.216c-0.432-0.432-1.136-0.672-2.193-0.672h-3.009l-1.232,4.546H224.547z"/>
		<path d="M233.25,41.003h8.02l-0.32,1.152h-6.755l-1.024,3.826h6.035l-0.32,1.152h-6.018l-1.057,3.922h6.835l-0.304,1.152h-8.1
			L233.25,41.003z"/>
		<path d="M243.698,41.003h3.505c1.409,0,2.481,0.336,3.202,1.041c0.512,0.528,0.8,1.216,0.8,2.081c0,1.073-0.384,1.953-1.057,2.625
			c-0.944,0.96-2.529,1.472-4.466,1.472h-2.657l-1.073,3.986h-1.265L243.698,41.003z M247.156,42.172h-2.513l-1.312,4.93h2.417
			c1.569,0,2.753-0.384,3.441-1.073c0.464-0.464,0.705-1.072,0.705-1.825c0-0.544-0.16-0.976-0.512-1.328
			C248.917,42.412,248.164,42.172,247.156,42.172z"/>
	</g>
	<g>
		<path d="M558.308,21.803h1.185l2.417,6.115l5.715-6.115h1.408l-3.009,11.205h-1.281l2.434-9.076l-5.683,6.002h-0.063l-2.449-5.986
			l-2.434,9.06h-1.248L558.308,21.803z"/>
		<path d="M581.575,26.461c0,1.809-0.784,3.585-2.032,4.85c-1.169,1.152-2.737,1.905-4.498,1.905c-2.897,0-4.914-2.129-4.914-4.866
			c0-1.809,0.784-3.57,2.049-4.834c1.152-1.153,2.722-1.905,4.482-1.905C579.559,21.611,581.575,23.74,581.575,26.461z
			 M578.551,30.574c1.072-1.072,1.696-2.577,1.696-4.065c0-2.113-1.425-3.729-3.665-3.729c-1.361,0-2.546,0.576-3.426,1.473
			c-1.072,1.056-1.696,2.561-1.696,4.065c0,2.113,1.424,3.729,3.665,3.729C576.485,32.047,577.67,31.455,578.551,30.574z"/>
		<path d="M585.684,21.803h2.705c1.873,0,3.394,0.528,4.37,1.489c0.8,0.8,1.216,1.856,1.216,3.217c0,1.712-0.624,3.217-1.761,4.37
			c-1.345,1.345-3.361,2.129-5.746,2.129h-3.794L585.684,21.803z M588.309,22.971h-1.665l-2.385,8.868h2.369
			c1.873,0,3.489-0.624,4.626-1.761c0.896-0.896,1.408-2.113,1.408-3.489c0-1.057-0.336-1.889-0.944-2.481
			C590.981,23.372,589.797,22.971,588.309,22.971z"/>
		<path d="M598.052,21.803h8.02l-0.32,1.152h-6.755l-1.024,3.826h6.034l-0.32,1.152h-6.018l-1.057,3.922h6.835l-0.305,1.152h-8.1
			L598.052,21.803z"/>
		<path d="M608.5,21.803h1.265l-2.689,10.036h6.307l-0.32,1.168h-7.571L608.5,21.803z"/>
		<path d="M558.308,41.003h2.705c1.873,0,3.394,0.528,4.37,1.489c0.801,0.8,1.217,1.856,1.217,3.217c0,1.712-0.624,3.217-1.761,4.37
			c-1.345,1.345-3.361,2.129-5.746,2.129h-3.794L558.308,41.003z M560.933,42.172h-1.664l-2.385,8.868h2.368
			c1.873,0,3.49-0.624,4.626-1.761c0.896-0.896,1.409-2.113,1.409-3.489c0-1.057-0.336-1.889-0.944-2.481
			C563.606,42.572,562.422,42.172,560.933,42.172z"/>
		<path d="M570.676,41.003h8.02l-0.32,1.152h-6.755l-1.024,3.826h6.034l-0.32,1.152h-6.018l-1.057,3.922h6.835l-0.305,1.152h-8.1
			L570.676,41.003z"/>
		<path d="M581.124,41.003h3.505c1.409,0,2.481,0.336,3.202,1.041c0.512,0.528,0.8,1.216,0.8,2.081c0,1.073-0.384,1.953-1.057,2.625
			c-0.944,0.96-2.528,1.472-4.466,1.472h-2.656l-1.073,3.986h-1.265L581.124,41.003z M584.581,42.172h-2.513l-1.312,4.93h2.417
			c1.568,0,2.753-0.384,3.441-1.073c0.464-0.464,0.704-1.072,0.704-1.825c0-0.544-0.16-0.976-0.512-1.328
			C586.342,42.412,585.59,42.172,584.581,42.172z"/>
		<path d="M591.796,41.003h1.265l-2.689,10.036h6.307l-0.32,1.168h-7.571L591.796,41.003z"/>
		<path d="M609.671,45.661c0,1.809-0.784,3.585-2.032,4.85c-1.169,1.152-2.737,1.905-4.498,1.905c-2.897,0-4.914-2.129-4.914-4.866
			c0-1.809,0.784-3.57,2.049-4.834c1.152-1.153,2.722-1.905,4.482-1.905C607.654,40.811,609.671,42.94,609.671,45.661z
			 M606.646,49.775c1.072-1.072,1.696-2.577,1.696-4.065c0-2.113-1.425-3.729-3.665-3.729c-1.361,0-2.546,0.576-3.426,1.473
			c-1.072,1.056-1.696,2.561-1.696,4.065c0,2.113,1.424,3.729,3.665,3.729C604.581,51.247,605.766,50.655,606.646,49.775z"/>
		<path d="M613.908,47.694l-2.77-6.691h1.409l2.24,5.65l5.282-5.65h1.617l-6.562,6.899l-1.153,4.306h-1.28L613.908,47.694z"/>
		<path d="M623.331,41.003h1.185l2.417,6.115l5.715-6.115h1.408l-3.009,11.205h-1.281l2.434-9.076l-5.683,6.002h-0.063l-2.449-5.986
			l-2.434,9.06h-1.248L623.331,41.003z"/>
		<path d="M637.235,41.003h8.02l-0.32,1.152h-6.755l-1.024,3.826h6.034l-0.32,1.152h-6.018l-1.057,3.922h6.835l-0.305,1.152h-8.1
			L637.235,41.003z"/>
		<path d="M647.684,41.003h1.168l4.562,9.092l2.449-9.092h1.232l-3.01,11.205h-1.008l-4.675-9.3l-2.496,9.3h-1.233L647.684,41.003z"
			/>
		<path d="M662.597,42.172h-3.777l0.32-1.168h8.819l-0.32,1.168h-3.777l-2.689,10.036h-1.265L662.597,42.172z"/>
	</g>
	<g>
		<g>
			<rect x="203.08" y="82.751" class="st0" width="54.37" height="4.137"/>
			<g>
				<polygon class="st0" points="255.639,91.006 266.354,84.819 255.639,78.631 				"/>
			</g>
		</g>
		<g>
			<rect x="553.256" y="82.751" class="st0" width="54.369" height="4.137"/>
			<g>
				<polygon class="st0" points="605.815,91.006 616.53,84.819 605.815,78.631 				"/>
			</g>
		</g>
	</g>
	<g>
		<g>
			<path d="M35.815,311.437v-6.104H37v6.03c0,2.265,1.215,3.539,3.21,3.539c1.935,0,3.165-1.17,3.165-3.465v-6.104h1.185v6.015
				c0,3.061-1.755,4.65-4.38,4.65C37.585,315.998,35.815,314.408,35.815,311.437z"/>
			<path d="M47.365,305.333h1.11l6.615,8.415v-8.415h1.155v10.5h-0.945l-6.78-8.61v8.61h-1.155V305.333z"/>
			<path d="M58.525,314.302l0.735-0.87c1.095,0.99,2.145,1.485,3.6,1.485c1.41,0,2.34-0.75,2.34-1.785v-0.03
				c0-0.975-0.525-1.529-2.73-1.994c-2.415-0.525-3.525-1.306-3.525-3.03v-0.03c0-1.649,1.455-2.864,3.45-2.864
				c1.53,0,2.625,0.435,3.689,1.289l-0.69,0.915c-0.975-0.795-1.95-1.14-3.03-1.14c-1.365,0-2.235,0.75-2.235,1.695v0.029
				c0,0.99,0.54,1.545,2.85,2.04c2.34,0.511,3.419,1.365,3.419,2.97v0.03c0,1.8-1.5,2.97-3.584,2.97
				C61.15,315.982,59.785,315.427,58.525,314.302z"/>
			<path d="M71.365,306.427H67.84v-1.095h8.25v1.095h-3.525v9.405h-1.2V306.427z"/>
			<path d="M78.31,305.333h4.515c1.29,0,2.325,0.391,2.985,1.05c0.51,0.511,0.81,1.245,0.81,2.07v0.03c0,1.739-1.2,2.76-2.85,3.06
				l3.225,4.29H85.54l-3.045-4.08h-3v4.08H78.31V305.333z M82.719,310.687c1.575,0,2.7-0.81,2.7-2.159v-0.03
				c0-1.29-0.99-2.07-2.685-2.07h-3.24v4.26H82.719z"/>
			<path d="M88.989,311.437v-6.104h1.185v6.03c0,2.265,1.215,3.539,3.21,3.539c1.935,0,3.165-1.17,3.165-3.465v-6.104h1.185v6.015
				c0,3.061-1.755,4.65-4.38,4.65C90.759,315.998,88.989,314.408,88.989,311.437z"/>
			<path d="M100.074,310.613v-0.03c0-2.97,2.22-5.43,5.31-5.43c1.905,0,3.045,0.675,4.095,1.665l-0.81,0.87
				c-0.885-0.841-1.875-1.44-3.3-1.44c-2.325,0-4.065,1.89-4.065,4.305v0.03c0,2.43,1.755,4.335,4.065,4.335
				c1.44,0,2.385-0.555,3.39-1.515l0.78,0.765c-1.095,1.109-2.295,1.845-4.2,1.845C102.309,316.012,100.074,313.628,100.074,310.613
				z"/>
			<path d="M114.384,306.427h-3.525v-1.095h8.25v1.095h-3.525v9.405h-1.2V306.427z"/>
			<path d="M121.164,311.437v-6.104h1.185v6.03c0,2.265,1.215,3.539,3.21,3.539c1.935,0,3.165-1.17,3.165-3.465v-6.104h1.185v6.015
				c0,3.061-1.755,4.65-4.38,4.65C122.934,315.998,121.164,314.408,121.164,311.437z"/>
			<path d="M132.713,305.333h4.515c1.29,0,2.325,0.391,2.985,1.05c0.51,0.511,0.81,1.245,0.81,2.07v0.03c0,1.739-1.2,2.76-2.85,3.06
				l3.225,4.29h-1.455l-3.045-4.08h-3v4.08h-1.185V305.333z M137.123,310.687c1.575,0,2.7-0.81,2.7-2.159v-0.03
				c0-1.29-0.99-2.07-2.685-2.07h-3.24v4.26H137.123z"/>
			<path d="M143.558,305.333h7.59v1.08h-6.405v3.585h5.729v1.08h-5.729v3.675h6.479v1.08h-7.665V305.333z"/>
			<path d="M153.608,305.333h3.645c3.3,0,5.58,2.265,5.58,5.22v0.03c0,2.955-2.28,5.25-5.58,5.25h-3.645V305.333z M154.793,306.427
				v8.311h2.46c2.655,0,4.35-1.801,4.35-4.125v-0.03c0-2.325-1.695-4.155-4.35-4.155H154.793z"/>
			<path d="M73.502,329.528c0-2.761,1.485-4.92,4.155-6.42l0.495,0.765c-2.28,1.455-3.48,3.255-3.48,5.655
				c0,2.399,1.2,4.199,3.48,5.654l-0.495,0.765C74.987,334.447,73.502,332.288,73.502,329.528z"/>
			<path d="M83.251,324.427h-3.525v-1.095h8.25v1.095h-3.525v9.405h-1.2V324.427z"/>
			<path d="M90.196,323.333h7.59v1.08h-6.405v3.585h5.73v1.08h-5.73v3.675h6.479v1.08h-7.665V323.333z"/>
			<path d="M108.796,323.333l-3.87,5.145l4.02,5.355h-1.41l-3.36-4.53l-3.36,4.53h-1.365l4.02-5.355l-3.87-5.145h1.395l3.21,4.32
				l3.21-4.32H108.796z"/>
			<path d="M113.896,324.427h-3.525v-1.095h8.25v1.095h-3.525v9.405h-1.2V324.427z"/>
			<path d="M120.196,335.182c2.28-1.455,3.48-3.255,3.48-5.654c0-2.4-1.2-4.2-3.48-5.655l0.495-0.765
				c2.67,1.5,4.155,3.659,4.155,6.42c0,2.76-1.485,4.919-4.155,6.419L120.196,335.182z"/>
		</g>
	</g>
	<g class="st1">
		<g>
			<g>
				<path d="M46.907,226.351l0.735-0.87c1.095,0.99,2.145,1.485,3.6,1.485c1.41,0,2.34-0.75,2.34-1.785v-0.03
					c0-0.975-0.525-1.529-2.73-1.994c-2.415-0.525-3.525-1.306-3.525-3.03v-0.03c0-1.649,1.455-2.864,3.45-2.864
					c1.53,0,2.625,0.435,3.689,1.289l-0.69,0.915c-0.975-0.795-1.95-1.14-3.03-1.14c-1.365,0-2.235,0.75-2.235,1.695v0.029
					c0,0.99,0.54,1.545,2.85,2.04c2.34,0.511,3.419,1.365,3.419,2.97v0.03c0,1.8-1.5,2.97-3.584,2.97
					C49.532,228.031,48.167,227.476,46.907,226.351z"/>
				<path d="M59.747,218.476h-3.525v-1.095h8.25v1.095h-3.525v9.405h-1.2V218.476z"/>
				<path d="M66.692,217.382h4.515c1.29,0,2.325,0.391,2.985,1.05c0.51,0.511,0.81,1.245,0.81,2.07v0.03c0,1.739-1.2,2.76-2.85,3.06
					l3.225,4.29h-1.455l-3.045-4.08h-3v4.08h-1.185V217.382z M71.102,222.736c1.575,0,2.7-0.81,2.7-2.159v-0.03
					c0-1.29-0.99-2.07-2.685-2.07h-3.24v4.26H71.102z"/>
				<path d="M77.372,223.486v-6.104h1.185v6.03c0,2.265,1.215,3.539,3.21,3.539c1.935,0,3.165-1.17,3.165-3.465v-6.104h1.185v6.015
					c0,3.061-1.755,4.65-4.38,4.65C79.142,228.047,77.372,226.457,77.372,223.486z"/>
				<path d="M88.457,222.662v-0.03c0-2.97,2.22-5.43,5.31-5.43c1.905,0,3.045,0.675,4.095,1.665l-0.81,0.87
					c-0.885-0.841-1.875-1.44-3.3-1.44c-2.325,0-4.065,1.89-4.065,4.305v0.03c0,2.43,1.755,4.335,4.065,4.335
					c1.44,0,2.385-0.555,3.39-1.515l0.78,0.765c-1.095,1.109-2.295,1.845-4.2,1.845C90.691,228.061,88.457,225.676,88.457,222.662z"
					/>
				<path d="M102.766,218.476h-3.525v-1.095h8.25v1.095h-3.525v9.405h-1.2V218.476z"/>
				<path d="M109.546,223.486v-6.104h1.185v6.03c0,2.265,1.215,3.539,3.21,3.539c1.935,0,3.165-1.17,3.165-3.465v-6.104h1.185v6.015
					c0,3.061-1.755,4.65-4.38,4.65C111.316,228.047,109.546,226.457,109.546,223.486z"/>
				<path d="M121.096,217.382h4.515c1.29,0,2.324,0.391,2.984,1.05c0.51,0.511,0.811,1.245,0.811,2.07v0.03
					c0,1.739-1.2,2.76-2.851,3.06l3.226,4.29h-1.455l-3.045-4.08h-3v4.08h-1.185V217.382z M125.505,222.736
					c1.575,0,2.7-0.81,2.7-2.159v-0.03c0-1.29-0.99-2.07-2.685-2.07h-3.24v4.26H125.505z"/>
				<path d="M131.942,217.382h7.589v1.08h-6.404v3.585h5.729v1.08h-5.729v3.675h6.479v1.08h-7.664V217.382z"/>
				<path d="M141.992,217.382h3.645c3.3,0,5.58,2.265,5.58,5.22v0.03c0,2.955-2.28,5.25-5.58,5.25h-3.645V217.382z M143.176,218.476
					v8.311h2.46c2.655,0,4.35-1.801,4.35-4.125v-0.03c0-2.325-1.694-4.155-4.35-4.155H143.176z"/>
			</g>
		</g>
		<g>
			<g>
				<ellipse class="st2" cx="82.049" cy="184.624" rx="11.078" ry="3.052"/>
				<path class="st3" d="M82.049,188.676c-4.486,0-12.078-0.854-12.078-4.053c0-3.198,7.592-4.052,12.078-4.052
					s12.078,0.854,12.078,4.052C94.127,187.823,86.535,188.676,82.049,188.676z M82.049,182.572c-6.125,0-9.819,1.357-10.082,2.086
					c0.214,0.525,3.529,2.019,10.082,2.019c6.434,0,9.746-1.438,10.067-2.054C91.753,183.887,88.079,182.572,82.049,182.572z"/>
			</g>
			<path class="st3" d="M82.049,194.253c-4.486,0-12.078-0.854-12.078-4.052h2c0.259,0.694,3.953,2.052,10.078,2.052
				s9.819-1.357,10.082-2.086l1.996,0.034C94.127,193.399,86.535,194.253,82.049,194.253z"/>
			<path class="st3" d="M82.049,199.829c-4.486,0-12.078-0.854-12.078-4.052h2c0.259,0.694,3.953,2.052,10.078,2.052
				s9.819-1.357,10.082-2.086l1.996,0.034C94.127,198.975,86.535,199.829,82.049,199.829z"/>
			<path class="st3" d="M82.049,205.405c-4.486,0-12.078-0.854-12.078-4.052h2c0.259,0.694,3.953,2.052,10.078,2.052
				s9.819-1.357,10.082-2.086l1.996,0.034C94.127,204.551,86.535,205.405,82.049,205.405z"/>
			<rect x="69.981" y="184.68" class="st3" width="2" height="16.975"/>
			<rect x="92.108" y="184.68" class="st3" width="2" height="16.975"/>
			<g>
				<ellipse class="st2" cx="116.299" cy="184.624" rx="11.078" ry="3.052"/>
				<path class="st3" d="M116.299,188.676c-4.486,0-12.078-0.854-12.078-4.053c0-3.198,7.592-4.052,12.078-4.052
					s12.078,0.854,12.078,4.052C128.377,187.823,120.785,188.676,116.299,188.676z M116.299,182.572
					c-6.125,0-9.819,1.357-10.082,2.086c0.214,0.525,3.529,2.019,10.082,2.019c6.434,0,9.746-1.438,10.067-2.054
					C126.003,183.887,122.329,182.572,116.299,182.572z"/>
			</g>
			<path class="st3" d="M116.299,194.253c-4.486,0-12.078-0.854-12.078-4.052h2c0.259,0.694,3.953,2.052,10.078,2.052
				s9.819-1.357,10.082-2.086l1.996,0.034C128.377,193.399,120.785,194.253,116.299,194.253z"/>
			<path class="st3" d="M116.299,199.829c-4.486,0-12.078-0.854-12.078-4.052h2c0.259,0.694,3.953,2.052,10.078,2.052
				s9.819-1.357,10.082-2.086l1.996,0.034C128.377,198.975,120.785,199.829,116.299,199.829z"/>
			<path class="st3" d="M116.299,205.405c-4.486,0-12.078-0.854-12.078-4.052h2c0.259,0.694,3.953,2.052,10.078,2.052
				s9.819-1.357,10.082-2.086l1.996,0.034C128.377,204.551,120.785,205.405,116.299,205.405z"/>
			<rect x="104.231" y="184.68" class="st3" width="2" height="16.975"/>
			<rect x="126.358" y="184.68" class="st3" width="2" height="16.975"/>
			<g>
				<ellipse class="st2" cx="99.174" cy="155.374" rx="11.078" ry="3.052"/>
				<path class="st3" d="M99.174,159.426c-4.486,0-12.078-0.854-12.078-4.052c0-3.199,7.592-4.052,12.078-4.052
					s12.078,0.854,12.078,4.052C111.252,158.572,103.66,159.426,99.174,159.426z M99.174,153.322c-6.553,0-9.868,1.492-10.082,2.086
					c0.263,0.66,3.958,2.018,10.082,2.018c6.029,0,9.704-1.316,10.067-2.051C108.92,154.76,105.608,153.322,99.174,153.322z"/>
			</g>
			<path class="st3" d="M99.174,165.003c-4.486,0-12.078-0.854-12.078-4.052h2c0.21,0.56,3.523,2.052,10.078,2.052
				s9.868-1.492,10.082-2.086l1.996,0.034C111.252,164.149,103.66,165.003,99.174,165.003z"/>
			<path class="st3" d="M99.174,170.579c-4.486,0-12.078-0.854-12.078-4.052h2c0.259,0.694,3.953,2.052,10.078,2.052
				s9.819-1.357,10.082-2.086l1.996,0.034C111.252,169.725,103.66,170.579,99.174,170.579z"/>
			<path class="st3" d="M99.174,176.155c-4.486,0-12.078-0.854-12.078-4.052h2c0.259,0.694,3.953,2.052,10.078,2.052
				s9.819-1.357,10.082-2.086l1.996,0.034C111.252,175.301,103.66,176.155,99.174,176.155z"/>
			<rect x="87.106" y="155.43" class="st3" width="2" height="16.975"/>
			<rect x="109.233" y="155.43" class="st3" width="2" height="16.975"/>
			<rect x="93.127" y="190.076" class="st3" width="12.095" height="2"/>
			
				<rect x="81.896" y="176.661" transform="matrix(0.7071 -0.7071 0.7071 0.7071 -100.1175 113.6168)" class="st3" width="10.386" height="2"/>
			
				<rect x="110.38" y="172.468" transform="matrix(0.7071 -0.7071 0.7071 0.7071 -93.0027 130.7935)" class="st3" width="2" height="10.386"/>
		</g>
	</g>
	<g>
		<path class="st3" d="M74.818,287.413h-2v-12.886c0-1.274,1.037-2.311,2.311-2.311h4.045v2h-4.045c-0.171,0-0.311,0.14-0.311,0.311
			V287.413z"/>
		<path class="st3" d="M84.174,264.345h-9.045c-1.274,0-2.311-0.932-2.311-2.076v-11.167h2v11.167
			c0.009,0.001,0.117,0.076,0.311,0.076h9.045V264.345z"/>
		<path class="st3" d="M123.29,263.762h-11.115v-2h11.115c0.192,0,0.301-0.085,0.319-0.115l-0.008-10.545h2v10.584
			C125.6,262.831,124.563,263.762,123.29,263.762z"/>
		<path class="st3" d="M125.6,287.413h-2v-13.596c0-0.171-0.139-0.311-0.311-0.311h-2.93v-2h2.93c1.274,0,2.311,1.036,2.311,2.311
			V287.413z"/>
		<path class="st3" d="M84.901,282.345c-3.709,0-6.727-3.018-6.727-6.727c0-3.186,2.175-5.84,5.153-6.544
			c-0.353-1.104-0.531-2.253-0.531-3.432c0-6.229,5.068-11.298,11.297-11.298c3.955,0,7.619,2.094,9.652,5.426
			c1.058-0.699,2.297-1.075,3.593-1.075c3.277,0,5.998,2.426,6.46,5.576c4.561,0.467,8.13,4.33,8.13,9.011
			c0,4.543-3.376,8.421-7.854,9.02l-0.133,0.009c-0.334,0-17.549,0.021-25.312,0.029L84.901,282.345z M94.094,256.345
			c-5.126,0-9.297,4.171-9.297,9.298c0,1.338,0.278,2.629,0.827,3.839l0.619,1.364l-1.498,0.048
			c-2.563,0.083-4.571,2.158-4.571,4.725c0,2.606,2.121,4.727,4.727,4.727l3.726-0.005c7.542-0.009,24.006-0.028,25.245-0.029
			c3.458-0.494,6.056-3.505,6.056-7.028c0-3.893-3.167-7.059-7.061-7.059h-1v-1c0-2.497-2.032-4.528-4.529-4.528
			c-1.207,0-2.342,0.469-3.197,1.32l-1.011,1.008l-0.602-1.294C101.009,258.459,97.698,256.345,94.094,256.345z"/>
		<g>
			<path class="st2" d="M83.948,289.277c0-1.339-1.085-2.424-2.424-2.424c-0.668,0-1.273,0.27-1.711,0.707
				c-0.717-1.544-2.282-2.614-4.096-2.614c-2.494,0-4.515,2.021-4.515,4.515c0,0.665,0.144,1.296,0.402,1.864
				c-1.349,0.044-2.428,1.15-2.428,2.51c0,1.387,1.124,2.511,2.511,2.511c0.016,0,12.544-0.015,12.733-0.015
				c1.728-0.231,3.063-1.729,3.063-3.52C87.482,290.858,85.9,289.277,83.948,289.277z"/>
			<path class="st3" d="M71.686,297.246c-1.881,0-3.411-1.53-3.411-3.411c0-1.448,0.887-2.681,2.159-3.177
				c-0.088-0.39-0.132-0.79-0.132-1.197c0-2.985,2.429-5.415,5.415-5.415c1.744,0,3.37,0.85,4.378,2.229
				c0.441-0.21,0.927-0.321,1.43-0.321c1.547,0,2.851,1.062,3.22,2.496c2.067,0.375,3.639,2.188,3.639,4.361
				c0,2.222-1.652,4.119-3.843,4.412l-0.12,0.009c-0.147,0-7.693,0.009-11.097,0.013L71.686,297.246z M75.716,285.846
				c-1.993,0-3.615,1.621-3.615,3.614c0,0.521,0.108,1.022,0.321,1.492l0.558,1.228l-1.348,0.044
				c-0.874,0.028-1.558,0.736-1.558,1.61c0,0.888,0.723,1.61,1.611,1.61l1.634-0.002c3.25-0.003,10.274-0.012,11.034-0.013
				c1.274-0.197,2.228-1.314,2.228-2.62c0-1.452-1.182-2.633-2.634-2.633h-0.9v-0.9c0-0.84-0.684-1.523-1.524-1.523
				c-0.406,0-0.788,0.157-1.075,0.443l-0.91,0.908l-0.542-1.165C78.405,286.668,77.117,285.846,75.716,285.846z"/>
		</g>
		<g>
			<path class="st2" d="M125.64,289.277c0-1.339-1.085-2.424-2.424-2.424c-0.668,0-1.273,0.27-1.711,0.707
				c-0.717-1.544-2.282-2.614-4.096-2.614c-2.494,0-4.515,2.021-4.515,4.515c0,0.665,0.144,1.296,0.402,1.864
				c-1.349,0.044-2.428,1.15-2.428,2.51c0,1.387,1.124,2.511,2.511,2.511c0.016,0,12.544-0.015,12.733-0.015
				c1.728-0.231,3.063-1.729,3.063-3.52C129.174,290.858,127.592,289.277,125.64,289.277z"/>
			<path class="st3" d="M113.378,297.246c-1.881,0-3.411-1.53-3.411-3.411c0-1.448,0.887-2.681,2.159-3.177
				c-0.088-0.39-0.132-0.79-0.132-1.197c0-2.985,2.429-5.415,5.415-5.415c1.744,0,3.369,0.85,4.377,2.229
				c0.441-0.21,0.927-0.321,1.43-0.321c1.547,0,2.851,1.062,3.22,2.496c2.067,0.375,3.639,2.188,3.639,4.361
				c0,2.222-1.652,4.119-3.843,4.412l-0.12,0.009c-0.147,0-7.693,0.009-11.097,0.013L113.378,297.246z M117.409,285.846
				c-1.993,0-3.615,1.621-3.615,3.614c0,0.521,0.108,1.022,0.321,1.492l0.558,1.228l-1.348,0.044
				c-0.874,0.028-1.558,0.736-1.558,1.61c0,0.888,0.723,1.61,1.611,1.61l1.634-0.002c3.25-0.003,10.274-0.012,11.034-0.013
				c1.274-0.197,2.228-1.314,2.228-2.62c0-1.452-1.182-2.633-2.634-2.633h-0.9v-0.9c0-0.84-0.684-1.523-1.524-1.523
				c-0.406,0-0.788,0.157-1.075,0.443l-0.91,0.908l-0.542-1.165C120.098,286.668,118.81,285.846,117.409,285.846z"/>
		</g>
		<g>
			<path class="st2" d="M83.948,244.816c0-1.339-1.085-2.424-2.424-2.424c-0.668,0-1.273,0.27-1.711,0.707
				c-0.717-1.544-2.282-2.614-4.096-2.614c-2.494,0-4.515,2.021-4.515,4.515c0,0.665,0.144,1.296,0.402,1.864
				c-1.349,0.044-2.428,1.15-2.428,2.51c0,1.387,1.124,2.511,2.511,2.511c0.016,0,12.544-0.015,12.733-0.015
				c1.728-0.231,3.063-1.729,3.063-3.52C87.482,246.397,85.9,244.816,83.948,244.816z"/>
			<path class="st3" d="M71.686,252.784c-1.881,0-3.411-1.53-3.411-3.411c0-1.448,0.887-2.681,2.159-3.177
				c-0.088-0.39-0.132-0.79-0.132-1.197c0-2.985,2.429-5.415,5.415-5.415c1.744,0,3.37,0.85,4.378,2.229
				c0.441-0.211,0.927-0.322,1.43-0.322c1.547,0,2.851,1.062,3.22,2.496c2.067,0.375,3.639,2.188,3.639,4.361
				c0,2.222-1.652,4.119-3.843,4.412l-0.12,0.009c-0.147,0-7.693,0.009-11.097,0.013L71.686,252.784z M75.716,241.385
				c-1.993,0-3.615,1.621-3.615,3.614c0,0.521,0.108,1.022,0.321,1.492l0.558,1.228l-1.348,0.044
				c-0.874,0.028-1.558,0.736-1.558,1.61c0,0.888,0.723,1.61,1.611,1.61l1.634-0.002c3.25-0.003,10.275-0.012,11.034-0.013
				c1.274-0.197,2.228-1.314,2.228-2.62c0-1.452-1.182-2.633-2.634-2.633h-0.9v-0.9c0-0.84-0.684-1.523-1.524-1.523
				c-0.406,0-0.788,0.157-1.076,0.444l-0.91,0.906l-0.541-1.164C78.405,242.206,77.117,241.385,75.716,241.385z"/>
		</g>
		<g>
			<path class="st2" d="M125.64,244.816c0-1.339-1.085-2.424-2.424-2.424c-0.668,0-1.273,0.27-1.711,0.707
				c-0.717-1.544-2.282-2.614-4.096-2.614c-2.494,0-4.515,2.021-4.515,4.515c0,0.665,0.144,1.296,0.402,1.864
				c-1.349,0.044-2.428,1.15-2.428,2.51c0,1.387,1.124,2.511,2.511,2.511c0.016,0,12.544-0.015,12.733-0.015
				c1.728-0.231,3.063-1.729,3.063-3.52C129.174,246.397,127.592,244.816,125.64,244.816z"/>
			<path class="st3" d="M113.378,252.784c-1.881,0-3.411-1.53-3.411-3.411c0-1.448,0.887-2.681,2.159-3.177
				c-0.088-0.39-0.132-0.79-0.132-1.197c0-2.985,2.429-5.415,5.415-5.415c1.744,0,3.37,0.85,4.377,2.229
				c0.441-0.211,0.927-0.322,1.43-0.322c1.547,0,2.851,1.062,3.22,2.496c2.067,0.375,3.639,2.188,3.639,4.361
				c0,2.222-1.652,4.119-3.843,4.412l-0.12,0.009c-0.147,0-7.693,0.009-11.097,0.013L113.378,252.784z M117.409,241.385
				c-1.993,0-3.615,1.621-3.615,3.614c0,0.521,0.108,1.022,0.321,1.492l0.558,1.228l-1.348,0.044
				c-0.874,0.028-1.558,0.736-1.558,1.61c0,0.888,0.723,1.61,1.611,1.61l1.634-0.002c3.25-0.003,10.275-0.012,11.034-0.013
				c1.274-0.197,2.228-1.314,2.228-2.62c0-1.452-1.182-2.633-2.634-2.633h-0.9v-0.9c0-0.84-0.684-1.523-1.524-1.523
				c-0.406,0-0.788,0.157-1.076,0.444l-0.91,0.906l-0.541-1.164C120.098,242.206,118.81,241.385,117.409,241.385z"/>
		</g>
	</g>
	<path class="st4" d="M194.042,357.052H154.74v-4.137h35.166V148.492c0-4.793-3.899-8.692-8.692-8.692H114.11
		c-2.917,0-5.774-1.008-8.046-2.837l-6.89-6.044l-6.823,5.988c-2.338,1.885-5.196,2.893-8.113,2.893H17.135
		c-4.792,0-8.691,3.899-8.691,8.692v204.423h31.515v4.137H4.307v-208.56c0-7.074,5.755-12.829,12.828-12.829h67.104
		c1.977,0,3.913-0.682,5.451-1.922l9.484-8.325l9.552,8.381c1.472,1.184,3.408,1.866,5.384,1.866h67.104
		c7.074,0,12.829,5.755,12.829,12.829V357.052z"/>
	<path class="st4" d="M504.673,357.052h-39.688v-4.137h35.552V148.492c0-4.793-3.898-8.692-8.691-8.692H424.74
		c-2.917,0-5.774-1.008-8.045-2.837l-6.891-6.044l-6.823,5.988c-2.338,1.885-5.195,2.893-8.112,2.893h-67.104
		c-4.793,0-8.692,3.899-8.692,8.692v204.423h38.516v4.137h-42.652v-208.56c0-7.074,5.755-12.829,12.829-12.829h67.104
		c1.977,0,3.912-0.682,5.451-1.922l9.484-8.325l9.552,8.381c1.472,1.184,3.407,1.866,5.384,1.866h67.104
		c7.073,0,12.828,5.755,12.828,12.829V357.052z"/>
	<g class="st5">
		<path class="st0" d="M59.613,348.233h1.333l5.744,12.694h-1.53l-1.477-3.331h-6.86l-1.495,3.331h-1.458L59.613,348.233z
			 M63.124,356.3l-2.863-6.409L57.38,356.3H63.124z"/>
		<path class="st0" d="M69.169,348.323h1.422v11.29h7.094v1.314h-8.517V348.323z"/>
		<path class="st0" d="M80.311,348.323h1.422v11.29h7.094v1.314h-8.517V348.323z"/>
		<path class="st0" d="M96.853,348.323h4.375c3.961,0,6.698,2.72,6.698,6.267v0.036c0,3.547-2.737,6.302-6.698,6.302h-4.375V348.323
			z M98.275,349.637v9.976h2.953c3.187,0,5.222-2.161,5.222-4.952v-0.035c0-2.791-2.035-4.988-5.222-4.988H98.275z"/>
		<path class="st0" d="M114.764,348.233h1.333l5.744,12.694h-1.53l-1.477-3.331h-6.86l-1.495,3.331h-1.458L114.764,348.233z
			 M118.275,356.3l-2.863-6.409l-2.881,6.409H118.275z"/>
		<path class="st0" d="M126.032,349.637H121.8v-1.314h9.903v1.314h-4.231v11.29h-1.44V349.637z"/>
		<path class="st0" d="M137.409,348.233h1.332l5.744,12.694h-1.531l-1.477-3.331h-6.859l-1.494,3.331h-1.459L137.409,348.233z
			 M140.919,356.3l-2.863-6.409l-2.881,6.409H140.919z"/>
	</g>
	<g class="st5">
		<path class="st0" d="M371.727,348.323h1.44l4.592,6.879l4.591-6.879h1.44v12.604h-1.422v-10.209l-4.592,6.752h-0.072l-4.591-6.734
			v10.191h-1.387V348.323z"/>
		<path class="st0" d="M386.792,354.661v-0.035c0-3.476,2.611-6.519,6.446-6.519s6.41,3.007,6.41,6.482v0.036
			c0,3.475-2.611,6.518-6.446,6.518S386.792,358.136,386.792,354.661z M398.172,354.661v-0.035c0-2.863-2.089-5.204-4.97-5.204
			s-4.934,2.305-4.934,5.168v0.036c0,2.862,2.089,5.203,4.97,5.203S398.172,357.524,398.172,354.661z"/>
		<path class="st0" d="M402.65,348.323h4.375c3.962,0,6.698,2.72,6.698,6.267v0.036c0,3.547-2.736,6.302-6.698,6.302h-4.375V348.323
			z M404.073,349.637v9.976h2.952c3.188,0,5.222-2.161,5.222-4.952v-0.035c0-2.791-2.034-4.988-5.222-4.988H404.073z"/>
		<path class="st0" d="M416.727,348.323h9.11v1.297h-7.688v4.304h6.878v1.296h-6.878v4.411h7.778v1.297h-9.201V348.323z"/>
		<path class="st0" d="M428.787,348.323h1.422v11.29h7.094v1.314h-8.516V348.323z"/>
		<path class="st0" d="M439.1,359.091l0.883-1.044c1.314,1.188,2.574,1.782,4.321,1.782c1.692,0,2.809-0.9,2.809-2.143v-0.036
			c0-1.17-0.63-1.837-3.277-2.395c-2.898-0.63-4.23-1.566-4.23-3.637v-0.036c0-1.98,1.746-3.439,4.141-3.439
			c1.837,0,3.151,0.522,4.43,1.549l-0.828,1.098c-1.171-0.954-2.341-1.368-3.638-1.368c-1.638,0-2.683,0.9-2.683,2.035v0.035
			c0,1.188,0.648,1.855,3.421,2.449c2.809,0.612,4.105,1.639,4.105,3.565v0.035c0,2.161-1.801,3.565-4.303,3.565
			C442.251,361.107,440.612,360.441,439.1,359.091z"/>
	</g>
	<g>
		<g>
			<path class="st6" d="M775.72,206.43c1.419,0,2.569,1.15,2.569,2.569v85.641c0,1.419-1.15,2.569-2.569,2.569H664.241
				c-1.419,0-2.569-1.15-2.569-2.569v-85.641c0-1.419,1.15-2.569,2.569-2.569H775.72z"/>
			<path class="st3" d="M775.72,298.208H664.241c-1.968,0-3.568-1.601-3.568-3.568v-85.641c0-1.968,1.601-3.569,3.568-3.569H775.72
				c1.968,0,3.568,1.602,3.568,3.569v85.641C779.288,296.607,777.688,298.208,775.72,298.208z M664.241,207.429
				c-0.865,0-1.568,0.704-1.568,1.569v85.641c0,0.865,0.703,1.568,1.568,1.568H775.72c0.865,0,1.568-0.703,1.568-1.568v-85.641
				c0-0.865-0.703-1.569-1.568-1.569H664.241z"/>
		</g>
		<g>
			<g>
				<polygon class="st2" points="704.055,243.39 703.425,246.226 702.059,249.061 700.484,251.267 698.803,252.501 702.191,257.543 
					704.37,256.519 707.416,252.317 709.411,247.171 710.357,243.075 				"/>
				<path class="st3" d="M692.35,226.441c9.029,0,16.374,7.345,16.374,16.374s-7.345,16.374-16.374,16.374
					c-9.029,0-16.374-7.345-16.374-16.374S683.322,226.441,692.35,226.441 M692.35,224.441c-10.148,0-18.374,8.226-18.374,18.374
					s8.226,18.374,18.374,18.374c10.148,0,18.374-8.226,18.374-18.374S702.498,224.441,692.35,224.441L692.35,224.441z"/>
				<path class="st3" d="M692.35,232.632c5.615,0,10.184,4.568,10.184,10.184s-4.568,10.184-10.184,10.184
					s-10.184-4.568-10.184-10.184S686.735,232.632,692.35,232.632 M692.35,230.632c-6.729,0-12.184,5.455-12.184,12.184
					s5.455,12.184,12.184,12.184s12.184-5.455,12.184-12.184S699.079,230.632,692.35,230.632L692.35,230.632z"/>
				<path class="st3" d="M709.438,243.812h-5.041c-0.553,0-1-0.447-1-1s0.447-1,1-1h5.041c0.553,0,1,0.447,1,1
					S709.99,243.812,709.438,243.812z"/>
				<rect x="691.344" y="225.403" class="st3" width="2" height="6.105"/>
				
					<rect x="691.567" y="227.055" transform="matrix(0.7032 -0.711 0.711 0.7032 44.1029 561.7583)" class="st3" width="6.647" height="2"/>
				
					<rect x="695.077" y="228.526" transform="matrix(0.7149 -0.6993 0.6993 0.7149 38.6294 553.7878)" class="st3" width="6.611" height="2"/>
				
					<rect x="698.452" y="230.259" transform="matrix(0.6983 -0.7158 0.7158 0.6983 46.1341 571.9667)" class="st3" width="6.165" height="2"/>
				
					<rect x="700.719" y="232.727" transform="matrix(0.6993 -0.7149 0.7149 0.6993 44.6266 573.5302)" class="st3" width="6.462" height="2"/>
				
					<rect x="702.51" y="235.747" transform="matrix(0.7071 -0.7071 0.7071 0.7071 39.323 568.4277)" class="st3" width="6.61" height="2"/>
				
					<rect x="703.83" y="239.357" transform="matrix(0.711 -0.7032 0.7032 0.711 35.3223 566.6608)" class="st3" width="6.462" height="2"/>
				
					<rect x="699.221" y="251.731" transform="matrix(0.8248 -0.5654 0.5654 0.8248 -21.5507 440.5953)" class="st3" width="2.001" height="6.686"/>
			</g>
		</g>
		<g>
			<g>
				<path class="st2" d="M764.05,277.525c0-3.381-2.741-6.122-6.122-6.122c-3.381,0-6.122,2.741-6.122,6.122
					c0,1.367,0.448,2.629,1.206,3.648h0l0.002,0.002c0.083,0.112,4.914,6.12,4.914,6.12l4.916-6.122h-0.005
					c0.308-0.413,0.568-0.865,0.764-1.349C763.892,279.114,764.05,278.338,764.05,277.525z M757.929,278.884
					c-0.775,0-1.404-0.629-1.404-1.404s0.629-1.404,1.404-1.404c0.775,0,1.404,0.629,1.404,1.404S758.704,278.884,757.929,278.884z"
					/>
				<path class="st3" d="M757.929,288.295c-0.303,0-0.59-0.138-0.779-0.373c-1.389-1.727-4.54-5.647-4.903-6.106
					c-0.013-0.015-0.025-0.03-0.036-0.046c-0.918-1.236-1.403-2.704-1.403-4.244c0-3.927,3.195-7.122,7.122-7.122
					s7.122,3.195,7.122,7.122c0,0.922-0.175,1.821-0.52,2.674c-0.212,0.521-0.491,1.022-0.831,1.492
					c-0.022,0.037-0.048,0.074-0.076,0.108l-4.916,6.121C758.519,288.157,758.232,288.295,757.929,288.295L757.929,288.295z
					 M753.802,280.559c0.005,0.006,0.01,0.013,0.015,0.019c0.127,0.163,2.764,3.443,4.112,5.12l4.08-5.08
					c0.009-0.014,0.019-0.027,0.028-0.041c0.266-0.357,0.481-0.737,0.642-1.13c0.246-0.61,0.372-1.258,0.372-1.922
					c0-2.824-2.298-5.122-5.122-5.122s-5.122,2.298-5.122,5.122C752.807,278.625,753.15,279.674,753.802,280.559z M757.929,279.884
					c-1.326,0-2.404-1.078-2.404-2.403c0-1.326,1.078-2.404,2.404-2.404s2.404,1.078,2.404,2.404
					C760.333,278.805,759.255,279.884,757.929,279.884z M757.929,277.076c-0.223,0-0.404,0.182-0.404,0.404s0.182,0.403,0.404,0.403
					s0.404-0.181,0.404-0.403S758.151,277.076,757.929,277.076z"/>
			</g>
			<path class="st3" d="M692.53,269.173v18.055h-18.055v-18.055H692.53 M694.53,267.173h-22.055v22.055h22.055V267.173
				L694.53,267.173z"/>
			<path class="st3" d="M717.406,269.173v18.055h-18.055v-18.055H717.406 M719.406,267.173h-22.055v22.055h22.055V267.173
				L719.406,267.173z"/>
			<path class="st3" d="M742.08,268.882v18.055h-18.055v-18.055H742.08 M744.08,266.882h-22.055v22.055h22.055V266.882
				L744.08,266.882z"/>
			<path class="st3" d="M766.956,268.882v18.055h-18.055v-18.055H766.956 M768.956,266.882h-22.055v22.055h22.055V266.882
				L768.956,266.882z"/>
			<path class="st3" d="M674.575,287.886c-0.316,0-0.628-0.149-0.822-0.429c-0.315-0.453-0.203-1.077,0.25-1.393
				c0.026-0.018,2.662-1.856,4.942-3.86c2.408-2.116,5.035-3.02,7.146-3.745l0.246-0.085c1.524-0.525,4.482-2.482,5.904-3.423
				c0.412-0.272,0.728-0.481,0.9-0.586c0.473-0.287,1.087-0.136,1.374,0.335c0.287,0.472,0.137,1.087-0.335,1.374
				c-0.16,0.098-0.453,0.292-0.836,0.545c-1.604,1.062-4.592,3.037-6.355,3.646l-0.248,0.086c-1.945,0.668-4.365,1.5-6.477,3.355
				c-2.368,2.081-5.009,3.923-5.12,4.001C674.972,287.829,674.772,287.886,674.575,287.886z"/>
			<path class="st3" d="M687.188,284.38c-0.703,0-1.405-0.132-2.011-0.47c-1.132-0.635-1.628-0.798-2.657-0.874
				c-0.947-0.066-1.768,0.21-1.775,0.213l-0.676-1.883c0.122-0.044,1.225-0.424,2.6-0.324c1.324,0.098,2.106,0.35,3.485,1.123
				c0.816,0.454,2.417,0.104,3.211-0.315l0.303-0.16c0.803-0.429,1.384-0.736,2.277-0.656l0.208,0.018
				c0.688,0.051,0.927,0.148,1.972,0.802l-1.061,1.695c-0.77-0.481-0.78-0.481-1.06-0.503l-0.246-0.021
				c-0.271-0.017-0.436,0.048-1.148,0.429l-0.312,0.166C689.564,284.006,688.374,284.38,687.188,284.38z"/>
			<path class="st3" d="M679.042,284.589l-1.816-0.838c1.185-2.567,0.918-3.055,0.906-3.074c-0.069-0.059-0.243-0.146-0.412-0.232
				c-0.555-0.281-1.395-0.706-1.969-1.767c-0.456-0.842-0.21-1.635-0.013-2.272c0.143-0.461,0.266-0.858,0.155-1.263
				c-0.663-2.426-2.324-2.587-2.512-2.598l0.063-1.999c0.135,0.004,3.299,0.126,4.378,4.069c0.264,0.967,0.011,1.784-0.174,2.382
				c-0.092,0.294-0.194,0.627-0.141,0.728c0.277,0.512,0.666,0.708,1.115,0.937c0.276,0.14,0.562,0.284,0.817,0.505
				C680.829,280.363,679.963,282.593,679.042,284.589z"/>
			<path class="st3" d="M682.772,277.786c-0.662,0-1.091-0.254-1.342-0.481c-0.669-0.607-0.669-1.507-0.669-1.938
				c0-0.163,0.016-0.303,0.032-0.435c0.006-0.044,0.015-0.084,0.014-0.129l0,0c-0.001,0.001-0.026-0.097-0.202-0.344
				c-0.652-0.913-0.74-1.591-0.304-2.341c0.47-0.819,1.48-0.757,1.776-0.72l1.054,0.2c0.125,0.022,0.401-0.01,0.531-0.062
				c0.64-1.004,1.468-1.022,1.809-0.979c0.1,0.013,2.447,0.32,2.648,1.675c0.177,1.194-0.983,1.773-1.677,2.119
				c-0.351,0.176-0.516,0.406-0.765,0.756l-0.18,0.248c-0.048,0.073-0.092,0.192-0.149,0.322c-0.297,0.683-0.852,1.953-2.31,2.094
				C682.947,277.781,682.858,277.786,682.772,277.786z M682.362,273.487c0.484,0.749,0.475,1.23,0.416,1.694
				c-0.007,0.057-0.017,0.115-0.017,0.185c0,0.088,0,0.293,0.024,0.42c0.018-0.001,0.038-0.002,0.062-0.004
				c0.243-0.023,0.409-0.311,0.668-0.903c0.114-0.262,0.223-0.51,0.383-0.723l0.151-0.209c0.135-0.188,0.283-0.397,0.472-0.605
				c-0.628,0.291-1.377,0.296-1.767,0.222L682.362,273.487z M685.377,272.571c-0.014,0.02-0.029,0.044-0.047,0.072
				c-0.013,0.021-0.025,0.042-0.039,0.062c0.062-0.037,0.126-0.073,0.193-0.109C685.447,272.588,685.411,272.579,685.377,272.571z"
				/>
			<g>
				
					<rect x="698.536" y="270.961" transform="matrix(0.7209 -0.693 0.693 0.7209 6.8868 560.6712)" class="st3" width="2" height="1.649"/>
				
					<rect x="700.495" y="272.822" transform="matrix(0.7206 -0.6933 0.6933 0.7206 6.1274 562.8517)" class="st3" width="2" height="2.002"/>
				<path class="st3" d="M704.024,277.454c-0.268,0-0.529-0.108-0.721-0.307l-1.143-1.188l1.441-1.387l0.723,0.752l1.002-0.292
					l0.561,1.92l-1.583,0.462C704.212,277.441,704.118,277.454,704.024,277.454z"/>
				<path class="st3" d="M707.487,276.484l-0.561-1.92l3.2-0.935l0.561,1.92L707.487,276.484z M712.287,275.082l-0.561-1.92
					l3.199-0.935l0.561,1.92L712.287,275.082z"/>
				
					<rect x="716.774" y="271.488" transform="matrix(0.9599 -0.2803 0.2803 0.9599 -47.6094 212.0361)" class="st3" width="1.648" height="2"/>
			</g>
			<g>
				
					<rect x="716.778" y="284.574" transform="matrix(0.6725 -0.7401 0.7401 0.6725 23.8389 624.67)" class="st3" width="2.001" height="1.648"/>
				
					<rect x="714.38" y="282.008" transform="matrix(0.6726 -0.74 0.74 0.6726 24.6457 622.1367)" class="st3" width="2.001" height="2.418"/>
				<path class="st3" d="M712.918,282.332l-0.805-0.732l-1.045,0.306l-0.561-1.92l1.583-0.463c0.33-0.1,0.695-0.015,0.953,0.22
					l1.22,1.109L712.918,282.332z"/>
				<path class="st3" d="M701.47,284.71l-0.561-1.92l3.199-0.936l0.561,1.92L701.47,284.71z M706.27,283.306l-0.561-1.92
					l3.199-0.935l0.561,1.92L706.27,283.306z"/>
				
					<rect x="697.974" y="283.447" transform="matrix(0.9599 -0.2803 0.2803 0.9599 -51.7145 207.2466)" class="st3" width="1.649" height="2"/>
			</g>
			<circle class="st3" cx="728.712" cy="273.367" r="1.555"/>
			<circle class="st3" cx="737.664" cy="276.478" r="1.555"/>
			<circle class="st3" cx="730.735" cy="283.279" r="1.555"/>
		</g>
		<path class="st3" d="M727.782,253.308h0.005H727.782 M727.776,254.309l3.183,0.019l-0.026,4.396l-3.183-0.019L727.776,254.309
			 M726.782,252.303c-0.549,0-0.997,0.444-1,0.994l-0.038,6.396c-0.003,0.552,0.442,1.003,0.994,1.006l5.183,0.031
			c0.002,0,0.004,0,0.006,0c0.549,0,0.997-0.444,1-0.994l0.038-6.396c0.003-0.552-0.442-1.003-0.994-1.006l-5.183-0.031
			C726.786,252.303,726.784,252.303,726.782,252.303L726.782,252.303z"/>
		<path class="st3" d="M751.396,250.384h0.005H751.396 M751.39,251.383l3.183,0.019l-0.044,7.368l-3.183-0.019L751.39,251.383
			 M750.396,249.378c-0.549,0-0.997,0.444-1,0.994l-0.055,9.368c-0.003,0.552,0.442,1.003,0.994,1.006l5.183,0.031
			c0.002,0,0.004,0,0.006,0c0.549,0,0.997-0.444,1-0.994l0.055-9.368c0.003-0.552-0.442-1.003-0.994-1.006l-5.183-0.031
			C750.4,249.378,750.398,249.378,750.396,249.378L750.396,249.378z"/>
		<path class="st3" d="M762.031,240.514h0.005H762.031 M762.026,241.514l3.183,0.019l-0.102,17.259l-3.183-0.019L762.026,241.514
			 M761.031,239.508c-0.549,0-0.997,0.444-1,0.994l-0.114,19.259c-0.003,0.552,0.442,1.003,0.994,1.006l5.183,0.031
			c0.002,0,0.004,0,0.006,0c0.549,0,0.997-0.444,1-0.994l0.114-19.259c0.003-0.552-0.442-1.003-0.994-1.006l-5.183-0.031
			C761.035,239.508,761.033,239.508,761.031,239.508L761.031,239.508z"/>
		<path class="st3" d="M739.666,246.963h0.005H739.666 M739.66,247.963l3.183,0.019l-0.064,10.765l-3.183-0.019L739.66,247.963
			 M738.666,245.957c-0.549,0-0.997,0.444-1,0.994l-0.076,12.765c-0.003,0.552,0.442,1.003,0.994,1.006l5.183,0.031
			c0.002,0,0.004,0,0.006,0c0.549,0,0.997-0.444,1-0.994l0.076-12.765c0.003-0.552-0.442-1.003-0.994-1.006l-5.183-0.031
			C738.67,245.958,738.668,245.957,738.666,245.957L738.666,245.957z"/>
		
			<rect x="730.218" y="238.955" transform="matrix(0.7655 -0.6434 0.6434 0.7655 18.0269 529.373)" class="st3" width="10.095" height="2"/>
		
			<rect x="745.731" y="235.293" transform="matrix(0.5452 -0.8383 0.8383 0.5452 139.1729 734.7225)" class="st3" width="1.999" height="7.604"/>
		
			<rect x="752.746" y="234.443" transform="matrix(0.6434 -0.7655 0.7655 0.6434 90.0665 664.2518)" class="st3" width="10.662" height="2"/>
		<g>
			<circle class="st2" cx="729.326" cy="245.089" r="3.87"/>
			<path class="st3" d="M729.326,243.22c1.031,0,1.87,0.839,1.87,1.87s-0.839,1.87-1.87,1.87c-1.031,0-1.87-0.839-1.87-1.87
				S728.295,243.22,729.326,243.22 M729.326,241.22c-2.137,0-3.87,1.732-3.87,3.87s1.732,3.87,3.87,3.87s3.87-1.732,3.87-3.87
				S731.463,241.22,729.326,241.22L729.326,241.22z"/>
		</g>
		<g>
			<circle class="st2" cx="752.938" cy="242.103" r="3.87"/>
			<path class="st3" d="M752.938,240.233c1.031,0,1.87,0.839,1.87,1.87s-0.839,1.87-1.87,1.87c-1.031,0-1.87-0.839-1.87-1.87
				S751.907,240.233,752.938,240.233 M752.938,238.233c-2.137,0-3.87,1.732-3.87,3.87s1.732,3.87,3.87,3.87s3.87-1.732,3.87-3.87
				S755.075,238.233,752.938,238.233L752.938,238.233z"/>
		</g>
		<g>
			<circle class="st2" cx="763.548" cy="229.132" r="3.87"/>
			<path class="st3" d="M763.548,227.262c1.031,0,1.87,0.839,1.87,1.87s-0.839,1.87-1.87,1.87c-1.031,0-1.87-0.839-1.87-1.87
				S762.517,227.262,763.548,227.262 M763.548,225.262c-2.137,0-3.87,1.732-3.87,3.87s1.732,3.87,3.87,3.87
				c2.137,0,3.87-1.732,3.87-3.87S765.685,225.262,763.548,225.262L763.548,225.262z"/>
		</g>
		<g>
			<circle class="st2" cx="741.201" cy="235.234" r="3.87"/>
			<path class="st3" d="M741.201,233.364c1.031,0,1.87,0.839,1.87,1.87s-0.839,1.87-1.87,1.87c-1.031,0-1.87-0.839-1.87-1.87
				S740.17,233.364,741.201,233.364 M741.201,231.364c-2.137,0-3.87,1.732-3.87,3.87s1.732,3.87,3.87,3.87s3.87-1.732,3.87-3.87
				S743.338,231.364,741.201,231.364L741.201,231.364z"/>
		</g>
		<path class="st3" d="M777.087,219.052H663.345c-0.553,0-1-0.447-1-1s0.447-1,1-1h113.742c0.553,0,1,0.447,1,1
			S777.64,219.052,777.087,219.052z"/>
		<path class="st3" d="M670.328,213.808h-2.051c-0.553,0-1-0.447-1-1s0.447-1,1-1h2.051c0.553,0,1,0.447,1,1
			S670.881,213.808,670.328,213.808z"/>
		<path class="st3" d="M676.939,213.808h-2.051c-0.553,0-1-0.447-1-1s0.447-1,1-1h2.051c0.553,0,1,0.447,1,1
			S677.492,213.808,676.939,213.808z"/>
		<path class="st3" d="M683.551,213.808H681.5c-0.553,0-1-0.447-1-1s0.447-1,1-1h2.051c0.553,0,1,0.447,1,1
			S684.104,213.808,683.551,213.808z"/>
	</g>
	<g>
		<path d="M655.02,79.747h4.718c2.845,0,4.717,1.513,4.717,3.998v0.036c0,2.719-2.269,4.124-4.951,4.124h-3.061v4.447h-1.423V79.747
			z M659.557,86.607c2.089,0,3.457-1.116,3.457-2.773v-0.036c0-1.8-1.351-2.737-3.385-2.737h-3.187v5.546H659.557z"/>
		<path d="M667.044,79.747h5.419c1.549,0,2.791,0.468,3.583,1.261c0.612,0.612,0.973,1.494,0.973,2.484v0.036
			c0,2.089-1.44,3.313-3.421,3.673l3.871,5.149h-1.747l-3.654-4.897h-3.602v4.897h-1.422V79.747z M672.337,86.175
			c1.891,0,3.241-0.972,3.241-2.593v-0.036c0-1.548-1.188-2.485-3.223-2.485h-3.89v5.114H672.337z"/>
		<path d="M680.058,79.747h9.11v1.297h-7.688v4.303h6.878v1.296h-6.878v4.411h7.778v1.296h-9.2V79.747z"/>
		<path d="M692.117,79.747h4.375c3.962,0,6.698,2.719,6.698,6.266v0.036c0,3.547-2.736,6.302-6.698,6.302h-4.375V79.747z
			 M693.54,81.061v9.975h2.952c3.188,0,5.222-2.161,5.222-4.952v-0.036c0-2.791-2.034-4.988-5.222-4.988H693.54z"/>
		<path d="M706.319,79.747h1.423v12.604h-1.423V79.747z"/>
		<path d="M710.873,86.085v-0.036c0-3.565,2.665-6.518,6.374-6.518c2.286,0,3.655,0.81,4.915,1.999l-0.972,1.044
			c-1.062-1.008-2.251-1.729-3.962-1.729c-2.79,0-4.879,2.269-4.879,5.167v0.036c0,2.917,2.106,5.204,4.879,5.204
			c1.729,0,2.863-0.667,4.069-1.819l0.937,0.918c-1.314,1.333-2.755,2.215-5.041,2.215
			C713.556,92.567,710.873,89.704,710.873,86.085z"/>
		<path d="M728.046,81.061h-4.231v-1.314h9.903v1.314h-4.231v11.29h-1.44V81.061z"/>
		<path d="M736.505,79.747h1.423v12.604h-1.423V79.747z"/>
		<path d="M741.059,86.085v-0.036c0-3.475,2.61-6.518,6.446-6.518c3.835,0,6.409,3.007,6.409,6.482v0.036
			c0,3.475-2.61,6.518-6.445,6.518S741.059,89.56,741.059,86.085z M752.438,86.085v-0.036c0-2.863-2.088-5.204-4.969-5.204
			s-4.934,2.305-4.934,5.167v0.036c0,2.863,2.089,5.204,4.97,5.204S752.438,88.948,752.438,86.085z"/>
		<path d="M756.917,79.747h1.332l7.94,10.101V79.747h1.387v12.604h-1.135l-8.139-10.335v10.335h-1.386V79.747z"/>
		<path d="M770.308,90.514l0.883-1.044c1.314,1.188,2.574,1.783,4.321,1.783c1.692,0,2.809-0.9,2.809-2.143v-0.036
			c0-1.17-0.63-1.837-3.277-2.395c-2.898-0.63-4.23-1.566-4.23-3.637v-0.036c0-1.98,1.746-3.439,4.141-3.439
			c1.837,0,3.151,0.522,4.43,1.548l-0.828,1.098c-1.171-0.954-2.341-1.368-3.638-1.368c-1.638,0-2.683,0.9-2.683,2.035v0.036
			c0,1.188,0.648,1.855,3.421,2.449c2.81,0.612,4.105,1.638,4.105,3.565v0.036c0,2.161-1.801,3.565-4.303,3.565
			C773.459,92.531,771.82,91.864,770.308,90.514z"/>
	</g>
	<path class="st4" d="M814.849,357.052H776.16v-4.137h34.552V148.492c0-4.793-3.898-8.692-8.691-8.692h-67.104
		c-2.917,0-5.774-1.008-8.045-2.837l-6.891-6.044l-6.823,5.988c-2.338,1.885-5.195,2.893-8.112,2.893h-67.104
		c-4.793,0-8.692,3.899-8.692,8.692v204.423h36.516v4.137h-40.652v-208.56c0-7.074,5.755-12.829,12.829-12.829h67.104
		c1.977,0,3.912-0.682,5.451-1.922l9.484-8.325l9.552,8.381c1.472,1.184,3.407,1.866,5.384,1.866h67.104
		c7.073,0,12.828,5.755,12.828,12.829V357.052z"/>
	<g class="st5">
		<path class="st0" d="M677.203,348.323h5.365c1.44,0,2.575,0.415,3.295,1.117c0.522,0.54,0.811,1.206,0.811,2.017v0.035
			c0,1.639-1.008,2.485-1.998,2.917c1.494,0.45,2.7,1.314,2.7,3.043v0.036c0,2.161-1.818,3.439-4.573,3.439h-5.6V348.323z
			 M685.233,351.654c0-1.242-0.99-2.052-2.791-2.052h-3.835v4.339h3.728c1.71,0,2.898-0.774,2.898-2.251V351.654z M682.587,355.202
			h-3.979v4.447h4.231c1.908,0,3.097-0.847,3.097-2.251v-0.036C685.936,355.994,684.783,355.202,682.587,355.202z"/>
		<path class="st0" d="M690.001,355.652v-7.329h1.422v7.238c0,2.719,1.459,4.25,3.854,4.25c2.322,0,3.799-1.405,3.799-4.159v-7.329
			h1.423v7.221c0,3.673-2.106,5.582-5.258,5.582C692.125,361.126,690.001,359.217,690.001,355.652z"/>
		<path class="st0" d="M703.032,359.091l0.882-1.044c1.314,1.188,2.575,1.782,4.321,1.782c1.692,0,2.81-0.9,2.81-2.143v-0.036
			c0-1.17-0.631-1.837-3.277-2.395c-2.898-0.63-4.231-1.566-4.231-3.637v-0.036c0-1.98,1.747-3.439,4.142-3.439
			c1.836,0,3.15,0.522,4.429,1.549l-0.828,1.098c-1.17-0.954-2.341-1.368-3.637-1.368c-1.639,0-2.683,0.9-2.683,2.035v0.035
			c0,1.188,0.647,1.855,3.421,2.449c2.809,0.612,4.105,1.639,4.105,3.565v0.035c0,2.161-1.801,3.565-4.304,3.565
			C706.183,361.107,704.545,360.441,703.032,359.091z"/>
		<path class="st0" d="M715.507,348.323h1.422v12.604h-1.422V348.323z"/>
		<path class="st0" d="M720.618,348.323h1.332l7.94,10.102v-10.102h1.387v12.604h-1.135l-8.138-10.335v10.335h-1.387V348.323z"/>
		<path class="st0" d="M734.838,348.323h9.11v1.297h-7.688v4.304h6.878v1.296h-6.878v4.411h7.778v1.297h-9.201V348.323z"/>
		<path class="st0" d="M746.069,359.091l0.883-1.044c1.314,1.188,2.574,1.782,4.321,1.782c1.692,0,2.809-0.9,2.809-2.143v-0.036
			c0-1.17-0.63-1.837-3.277-2.395c-2.898-0.63-4.23-1.566-4.23-3.637v-0.036c0-1.98,1.746-3.439,4.141-3.439
			c1.837,0,3.151,0.522,4.43,1.549l-0.828,1.098c-1.171-0.954-2.341-1.368-3.638-1.368c-1.638,0-2.683,0.9-2.683,2.035v0.035
			c0,1.188,0.648,1.855,3.421,2.449c2.809,0.612,4.105,1.639,4.105,3.565v0.035c0,2.161-1.801,3.565-4.304,3.565
			C749.221,361.107,747.582,360.441,746.069,359.091z"/>
		<path class="st0" d="M757.409,359.091l0.883-1.044c1.314,1.188,2.574,1.782,4.321,1.782c1.692,0,2.809-0.9,2.809-2.143v-0.036
			c0-1.17-0.63-1.837-3.277-2.395c-2.898-0.63-4.231-1.566-4.231-3.637v-0.036c0-1.98,1.747-3.439,4.142-3.439
			c1.837,0,3.151,0.522,4.43,1.549l-0.828,1.098c-1.171-0.954-2.341-1.368-3.638-1.368c-1.639,0-2.683,0.9-2.683,2.035v0.035
			c0,1.188,0.648,1.855,3.421,2.449c2.809,0.612,4.105,1.639,4.105,3.565v0.035c0,2.161-1.801,3.565-4.304,3.565
			C760.561,361.107,758.922,360.441,757.409,359.091z"/>
		<path class="st0" d="M676.375,380.691l0.882-1.045c1.314,1.188,2.575,1.783,4.321,1.783c1.692,0,2.81-0.9,2.81-2.144v-0.035
			c0-1.171-0.631-1.837-3.277-2.396c-2.898-0.63-4.231-1.566-4.231-3.637v-0.036c0-1.98,1.747-3.438,4.142-3.438
			c1.836,0,3.15,0.521,4.429,1.548l-0.828,1.099c-1.17-0.954-2.341-1.368-3.637-1.368c-1.639,0-2.683,0.9-2.683,2.034v0.036
			c0,1.188,0.647,1.854,3.421,2.448c2.809,0.612,4.105,1.639,4.105,3.565v0.036c0,2.16-1.801,3.565-4.304,3.565
			C679.525,382.708,677.888,382.041,676.375,380.691z"/>
		<path class="st0" d="M692.126,377.54l-5.239-7.616h1.729l4.249,6.302l4.285-6.302h1.657l-5.24,7.599v5.005h-1.44V377.54z"/>
		<path class="st0" d="M699.612,380.691l0.883-1.045c1.314,1.188,2.574,1.783,4.321,1.783c1.692,0,2.809-0.9,2.809-2.144v-0.035
			c0-1.171-0.63-1.837-3.277-2.396c-2.898-0.63-4.23-1.566-4.23-3.637v-0.036c0-1.98,1.746-3.438,4.141-3.438
			c1.837,0,3.151,0.521,4.43,1.548l-0.828,1.099c-1.171-0.954-2.341-1.368-3.638-1.368c-1.638,0-2.683,0.9-2.683,2.034v0.036
			c0,1.188,0.648,1.854,3.421,2.448c2.81,0.612,4.105,1.639,4.105,3.565v0.036c0,2.16-1.801,3.565-4.303,3.565
			C702.764,382.708,701.125,382.041,699.612,380.691z"/>
		<path class="st0" d="M715.021,371.238h-4.23v-1.314h9.902v1.314h-4.231v11.289h-1.44V371.238z"/>
		<path class="st0" d="M723.355,369.924h9.11v1.296h-7.688v4.304h6.878v1.297h-6.878v4.411h7.778v1.296h-9.2V369.924z"/>
		<path class="st0" d="M735.415,369.924h1.44l4.592,6.878l4.591-6.878h1.44v12.604h-1.422v-10.209l-4.592,6.752h-0.072l-4.591-6.733
			v10.19h-1.387V369.924z"/>
		<path class="st0" d="M750.211,380.691l0.882-1.045c1.314,1.188,2.575,1.783,4.321,1.783c1.692,0,2.809-0.9,2.809-2.144v-0.035
			c0-1.171-0.63-1.837-3.276-2.396c-2.899-0.63-4.231-1.566-4.231-3.637v-0.036c0-1.98,1.746-3.438,4.142-3.438
			c1.836,0,3.15,0.521,4.429,1.548l-0.828,1.099c-1.17-0.954-2.341-1.368-3.637-1.368c-1.639,0-2.684,0.9-2.684,2.034v0.036
			c0,1.188,0.648,1.854,3.422,2.448c2.809,0.612,4.104,1.639,4.104,3.565v0.036c0,2.16-1.8,3.565-4.303,3.565
			C753.361,382.708,751.723,382.041,750.211,380.691z"/>
	</g>
	<g>
		<path class="st3" d="M422.646,286.559c-7.577,0-13.664-6.246-13.858-14.219l0.003-13.788c0-0.553,0.448-1,1-1l0,0
			c0.553,0,1,0.448,1,1l-0.003,13.764c0.167,6.854,5.376,12.243,11.858,12.243c4.87,0,9.192-3.101,11.011-7.9
			c0.193-0.51,0.758-0.768,1.271-0.588c1.223,0.437,2.494,0.657,3.78,0.657c6.544,0,11.868-5.652,11.868-12.6
			c0-2.854-0.88-5.549-2.546-7.79c-0.175-0.235-0.237-0.535-0.172-0.82s0.252-0.527,0.512-0.663
			c4.098-2.139,6.643-6.473,6.643-11.312c0-4.814-2.644-9.274-6.733-11.362c-0.265-0.135-0.455-0.38-0.521-0.669
			c-0.066-0.289,0-0.592,0.18-0.828c1.726-2.265,2.638-5.001,2.638-7.915c0-6.947-5.324-12.599-11.868-12.599
			c-1.307,0-2.598,0.228-3.837,0.677c-0.507,0.183-1.073-0.07-1.271-0.574c-1.852-4.705-6.151-7.746-10.954-7.746
			c-6.289,0-11.493,5.218-11.847,11.878l-0.004,19.271c0,0.553-0.448,1-1,1l0,0c-0.553,0-1-0.448-1-1l0.005-19.323
			c0.412-7.775,6.493-13.825,13.846-13.825c5.328,0,10.118,3.168,12.443,8.149c1.181-0.336,2.394-0.506,3.619-0.506
			c7.646,0,13.868,6.549,13.868,14.599c0,2.966-0.823,5.775-2.391,8.194c4.182,2.605,6.827,7.42,6.827,12.58
			c0,5.195-2.557,9.896-6.743,12.526c1.513,2.391,2.307,5.154,2.307,8.06c0,8.05-6.222,14.6-13.868,14.6
			c-1.199,0-2.388-0.163-3.544-0.485C432.87,283.326,428.051,286.559,422.646,286.559z"/>
		<path class="st3" d="M442.852,237.349c-0.346,0-0.683-0.18-0.867-0.501c-0.276-0.479-0.111-1.09,0.367-1.365
			c2.611-1.506,5.607-4.828,5.638-4.861c0.369-0.411,1.002-0.445,1.412-0.076c0.411,0.368,0.445,1.001,0.076,1.412
			c-0.131,0.146-3.237,3.592-6.128,5.258C443.192,237.306,443.021,237.349,442.852,237.349z"/>
		<path class="st3" d="M434.595,277.996c-0.136,0-0.274-0.028-0.407-0.087c-0.176-0.079-4.323-1.949-6.812-4.225
			c-0.407-0.373-0.436-1.006-0.063-1.413c0.373-0.408,1.007-0.435,1.413-0.063c2.249,2.057,6.24,3.857,6.28,3.875
			c0.504,0.227,0.729,0.817,0.503,1.322C435.342,277.776,434.978,277.996,434.595,277.996z"/>
		<path class="st3" d="M417.095,267.729h-6.647c-0.553,0-1-0.447-1-1s0.447-1,1-1h6.647c1.768,0,3.637-0.718,5.13-1.97
			c1.565-1.314,2.327-3.061,2.327-5.339c0-0.553,0.447-1,1-1s1,0.447,1,1c0,2.865-1.023,5.177-3.042,6.871
			C421.636,266.864,419.357,267.729,417.095,267.729z"/>
		<path class="st3" d="M449.559,257.01h-6.706c-1.692,0-3.355-0.613-4.683-1.729c-1.28-1.073-1.876-2.683-1.876-5.063
			c0-0.553,0.447-1,1-1s1,0.447,1,1c0,2.267,0.621,3.078,1.161,3.532c0.954,0.801,2.192,1.26,3.397,1.26h6.706c0.553,0,1,0.447,1,1
			C450.559,256.563,450.111,257.01,449.559,257.01z"/>
		<path class="st3" d="M427.026,228.855c-0.553,0-1-0.447-1-1s0.447-1,1-1c2.567,0,4.239-1.509,5.19-2.775
			c0.981-1.306,1.458-3.104,1.458-5.499v-8.36c0-0.553,0.447-1,1-1s1,0.447,1,1v8.36c0,2.843-0.608,5.035-1.858,6.7
			C432.085,227.586,429.674,228.855,427.026,228.855z"/>
		<g>
			<circle class="st2" cx="424.429" cy="230.326" r="3.538"/>
			<path class="st3" d="M424.429,226.788c1.954,0,3.538,1.584,3.538,3.538s-1.584,3.538-3.538,3.538s-3.538-1.584-3.538-3.538
				S422.475,226.788,424.429,226.788 M424.429,224.788c-3.054,0-5.538,2.484-5.538,5.538s2.484,5.538,5.538,5.538
				s5.538-2.484,5.538-5.538S427.483,224.788,424.429,224.788L424.429,224.788z"/>
		</g>
		<g>
			<circle class="st2" cx="424.429" cy="256.51" r="3.538"/>
			<path class="st3" d="M424.429,252.972c1.954,0,3.538,1.584,3.538,3.538c0,1.954-1.584,3.538-3.538,3.538
				s-3.538-1.584-3.538-3.538C420.892,254.556,422.475,252.972,424.429,252.972 M424.429,250.972c-3.054,0-5.538,2.484-5.538,5.538
				c0,3.054,2.484,5.538,5.538,5.538s5.538-2.484,5.538-5.538C429.967,253.456,427.483,250.972,424.429,250.972L424.429,250.972z"/>
		</g>
		<g>
			<circle class="st2" cx="437.401" cy="245.418" r="3.538"/>
			<path class="st3" d="M437.401,241.88c1.954,0,3.538,1.584,3.538,3.538c0,1.954-1.584,3.538-3.538,3.538s-3.538-1.584-3.538-3.538
				C433.863,243.464,435.447,241.88,437.401,241.88 M437.401,239.88c-3.054,0-5.538,2.484-5.538,5.538s2.484,5.538,5.538,5.538
				s5.538-2.484,5.538-5.538S440.455,239.88,437.401,239.88L437.401,239.88z"/>
		</g>
		<path class="st3" d="M396.964,286.486c-5.327,0-10.118-3.169-12.443-8.149c-1.18,0.336-2.393,0.506-3.619,0.506
			c-7.646,0-13.868-6.55-13.868-14.6c0-2.92,0.843-5.787,2.393-8.193c-4.183-2.605-6.829-7.421-6.829-12.581
			c0-5.196,2.557-9.896,6.743-12.525c-1.513-2.392-2.307-5.155-2.307-8.061c0-8.05,6.222-14.6,13.868-14.6
			c1.199,0,2.388,0.163,3.544,0.485c2.295-5.083,7.114-8.316,12.519-8.316c7.576,0,13.664,6.245,13.859,14.219l-0.004,13.789
			c0,0.553-0.448,1-1,1l0,0c-0.553,0-1-0.448-1-1l0.004-13.765c-0.168-6.854-5.377-12.243-11.859-12.243
			c-4.869,0-9.191,3.102-11.012,7.9c-0.191,0.51-0.753,0.77-1.271,0.588c-1.223-0.437-2.494-0.657-3.78-0.657
			c-6.544,0-11.868,5.652-11.868,12.6c0,2.854,0.881,5.549,2.546,7.791c0.175,0.235,0.237,0.535,0.172,0.82
			s-0.253,0.527-0.512,0.663c-4.098,2.138-6.643,6.472-6.643,11.312c0,4.814,2.644,9.274,6.733,11.362
			c0.265,0.135,0.455,0.38,0.521,0.669c0.066,0.289,0,0.592-0.18,0.828c-1.726,2.265-2.638,5.001-2.638,7.915
			c0,6.947,5.324,12.6,11.868,12.6c1.308,0,2.598-0.228,3.837-0.678c0.509-0.181,1.073,0.07,1.271,0.574
			c1.853,4.706,6.152,7.747,10.954,7.747c6.289,0,11.493-5.218,11.847-11.879l0.004-19.27c0-0.553,0.448-1,1-1l0,0
			c0.553,0,1,0.448,1,1l-0.005,19.322C410.397,280.436,404.316,286.486,396.964,286.486z"/>
		<path class="st3" d="M370.876,256.721c-0.238,0-0.477-0.084-0.668-0.256c-0.411-0.369-0.445-1.001-0.076-1.412
			c0.131-0.146,3.238-3.592,6.128-5.257c0.479-0.277,1.091-0.111,1.365,0.367c0.276,0.479,0.111,1.09-0.367,1.365
			c-2.61,1.505-5.607,4.827-5.638,4.86C371.423,256.609,371.149,256.721,370.876,256.721z"/>
		<path class="st3" d="M391.56,215.066c-0.241,0-0.483-0.087-0.675-0.262c-2.249-2.057-6.24-3.857-6.28-3.875
			c-0.504-0.227-0.729-0.817-0.503-1.322c0.226-0.502,0.813-0.729,1.32-0.504c0.176,0.079,4.323,1.949,6.812,4.225
			c0.407,0.373,0.436,1.006,0.063,1.413C392.101,214.957,391.83,215.066,391.56,215.066z"/>
		<path class="st3" d="M394.058,229.591c-0.553,0-1-0.447-1-1c0-2.866,1.023-5.178,3.043-6.871c1.872-1.571,4.149-2.437,6.414-2.437
			h6.648c0.553,0,1,0.447,1,1s-0.447,1-1,1h-6.648c-1.769,0-3.638,0.718-5.129,1.969c-1.566,1.314-2.328,3.061-2.328,5.339
			C395.058,229.143,394.61,229.591,394.058,229.591z"/>
		<path class="st3" d="M382.315,237.793c-0.553,0-1-0.447-1-1c0-2.267-0.621-3.078-1.161-3.532c-0.954-0.8-2.192-1.259-3.397-1.259
			h-6.705c-0.553,0-1-0.447-1-1s0.447-1,1-1h6.705c1.691,0,3.354,0.613,4.683,1.727c1.28,1.074,1.876,2.684,1.876,5.064
			C383.315,237.345,382.868,237.793,382.315,237.793z"/>
		<path class="st3" d="M384.935,277.791c-0.553,0-1-0.447-1-1v-8.36c0-2.843,0.608-5.035,1.858-6.7
			c1.73-2.305,4.143-3.573,6.79-3.573c0.553,0,1,0.447,1,1s-0.447,1-1,1c-2.567,0-4.24,1.509-5.19,2.774
			c-0.981,1.306-1.458,3.104-1.458,5.499v8.36C385.935,277.344,385.487,277.791,384.935,277.791z"/>
		<g>
			<circle class="st2" cx="395.18" cy="256.51" r="3.538"/>
			<path class="st3" d="M395.18,252.972c1.954,0,3.538,1.584,3.538,3.538c0,1.954-1.584,3.538-3.538,3.538
				c-1.954,0-3.538-1.584-3.538-3.538C391.642,254.556,393.226,252.972,395.18,252.972 M395.18,250.972
				c-3.054,0-5.538,2.484-5.538,5.538c0,3.054,2.484,5.538,5.538,5.538s5.538-2.484,5.538-5.538
				C400.718,253.456,398.234,250.972,395.18,250.972L395.18,250.972z"/>
		</g>
		<g>
			<circle class="st2" cx="395.18" cy="230.326" r="3.538"/>
			<path class="st3" d="M395.18,226.788c1.954,0,3.538,1.584,3.538,3.538s-1.584,3.538-3.538,3.538
				c-1.954,0-3.538-1.584-3.538-3.538S393.226,226.788,395.18,226.788 M395.18,224.788c-3.054,0-5.538,2.484-5.538,5.538
				s2.484,5.538,5.538,5.538s5.538-2.484,5.538-5.538S398.234,224.788,395.18,224.788L395.18,224.788z"/>
		</g>
		<g>
			<circle class="st2" cx="382.208" cy="242.358" r="3.538"/>
			<path class="st3" d="M382.208,238.821c1.954,0,3.538,1.584,3.538,3.538s-1.584,3.538-3.538,3.538
				c-1.954,0-3.538-1.584-3.538-3.538S380.254,238.821,382.208,238.821 M382.208,236.821c-3.054,0-5.538,2.484-5.538,5.538
				s2.484,5.538,5.538,5.538s5.538-2.484,5.538-5.538S385.262,236.821,382.208,236.821L382.208,236.821z"/>
		</g>
	</g>
	<g>
		<g>
			<path d="M368.02,42.788l0.735-0.87c1.095,0.989,2.145,1.484,3.6,1.484c1.41,0,2.34-0.75,2.34-1.784v-0.03
				c0-0.976-0.525-1.53-2.729-1.995c-2.415-0.525-3.525-1.305-3.525-3.03v-0.029c0-1.65,1.455-2.865,3.45-2.865
				c1.529,0,2.625,0.436,3.689,1.29l-0.689,0.915c-0.976-0.795-1.95-1.14-3.03-1.14c-1.365,0-2.235,0.75-2.235,1.694v0.03
				c0,0.99,0.54,1.545,2.851,2.04c2.34,0.51,3.42,1.365,3.42,2.97v0.03c0,1.8-1.5,2.97-3.585,2.97
				C370.645,44.468,369.279,43.913,368.02,42.788z"/>
			<path d="M380.859,34.913h-3.524v-1.095h8.249v1.095h-3.524v9.404h-1.2V34.913z"/>
			<path d="M387.805,33.818h7.589v1.08h-6.404v3.584h5.729v1.08h-5.729v3.675h6.479v1.08h-7.664V33.818z"/>
			<path d="M397.854,33.818h1.199l3.825,5.729l3.825-5.729h1.199v10.499h-1.185v-8.505l-3.825,5.625h-0.06l-3.825-5.609v8.489
				h-1.154V33.818z"/>
			<path d="M410.874,33.818h1.199l3.825,5.729l3.825-5.729h1.199v10.499h-1.185v-8.505l-3.825,5.625h-0.06l-3.825-5.609v8.489
				h-1.154V33.818z"/>
			<path d="M423.998,33.818h1.185v10.499h-1.185V33.818z"/>
			<path d="M428.259,33.818h1.109l6.615,8.414v-8.414h1.154v10.499h-0.944l-6.78-8.609v8.609h-1.154V33.818z"/>
			<path d="M439.643,39.097v-0.03c0-2.88,2.115-5.43,5.266-5.43c1.77,0,2.864,0.511,3.914,1.396l-0.765,0.899
				c-0.81-0.705-1.71-1.199-3.195-1.199c-2.324,0-3.989,1.965-3.989,4.305v0.029c0,2.505,1.604,4.365,4.154,4.365
				c1.2,0,2.311-0.465,3.03-1.05v-2.61h-3.195v-1.064h4.335v4.185c-0.975,0.87-2.444,1.605-4.215,1.605
				C441.683,44.498,439.643,42.097,439.643,39.097z"/>
			<path d="M362.5,66.788l0.735-0.87c1.095,0.989,2.145,1.484,3.6,1.484c1.41,0,2.34-0.75,2.34-1.784v-0.03
				c0-0.976-0.525-1.53-2.729-1.995c-2.415-0.525-3.525-1.305-3.525-3.03v-0.029c0-1.65,1.455-2.865,3.45-2.865
				c1.529,0,2.625,0.436,3.689,1.29l-0.689,0.915c-0.976-0.795-1.95-1.14-3.03-1.14c-1.365,0-2.235,0.75-2.235,1.694v0.03
				c0,0.99,0.54,1.545,2.851,2.04c2.34,0.51,3.42,1.365,3.42,2.97v0.03c0,1.8-1.5,2.97-3.585,2.97
				C365.125,68.468,363.76,67.913,362.5,66.788z"/>
			<path d="M375.624,64.163l-4.364-6.345h1.439l3.54,5.249l3.57-5.249h1.38l-4.365,6.329v4.17h-1.2V64.163z"/>
			<path d="M383.08,57.818h1.109l6.615,8.414v-8.414h1.154v10.499h-0.944l-6.78-8.609v8.609h-1.154V57.818z"/>
			<path d="M394.464,63.097v-0.03c0-2.895,2.176-5.43,5.37-5.43c3.195,0,5.34,2.505,5.34,5.4v0.029c0,2.896-2.175,5.431-5.37,5.431
				C396.609,68.498,394.464,65.993,394.464,63.097z M403.944,63.097v-0.03c0-2.385-1.74-4.334-4.141-4.334
				c-2.399,0-4.109,1.92-4.109,4.305v0.029c0,2.386,1.74,4.335,4.14,4.335C402.234,67.402,403.944,65.482,403.944,63.097z"/>
			<path d="M407.68,57.818h1.109l6.615,8.414v-8.414h1.154v10.499h-0.944l-6.78-8.609v8.609h-1.154V57.818z"/>
			<path d="M422.813,64.163l-4.364-6.345h1.439l3.54,5.249l3.57-5.249h1.38l-4.365,6.329v4.17h-1.2V64.163z"/>
			<path d="M430.27,57.818h1.199l3.825,5.729l3.825-5.729h1.199v10.499h-1.185v-8.505l-3.825,5.625h-0.06l-3.825-5.609v8.489h-1.154
				V57.818z"/>
			<path d="M442.599,66.788l0.735-0.87c1.095,0.989,2.145,1.484,3.6,1.484c1.41,0,2.34-0.75,2.34-1.784v-0.03
				c0-0.976-0.525-1.53-2.729-1.995c-2.415-0.525-3.525-1.305-3.525-3.03v-0.029c0-1.65,1.455-2.865,3.45-2.865
				c1.529,0,2.625,0.436,3.689,1.29l-0.689,0.915c-0.976-0.795-1.95-1.14-3.03-1.14c-1.365,0-2.234,0.75-2.234,1.694v0.03
				c0,0.99,0.539,1.545,2.85,2.04c2.34,0.51,3.42,1.365,3.42,2.97v0.03c0,1.8-1.5,2.97-3.585,2.97
				C445.224,68.468,443.858,67.913,442.599,66.788z"/>
			<path d="M353.875,82.913h-3.524v-1.095h8.249v1.095h-3.524v9.404h-1.2V82.913z"/>
			<path d="M359.635,87.097v-0.03c0-2.895,2.176-5.43,5.37-5.43c3.195,0,5.34,2.505,5.34,5.4v0.029c0,2.896-2.175,5.431-5.37,5.431
				C361.78,92.498,359.635,89.993,359.635,87.097z M369.115,87.097v-0.03c0-2.385-1.74-4.334-4.141-4.334
				c-2.399,0-4.109,1.92-4.109,4.305v0.029c0,2.386,1.74,4.335,4.14,4.335C367.405,91.402,369.115,89.482,369.115,87.097z"/>
			<path d="M372.851,81.818h1.185v6.27l6.029-6.27h1.53l-4.5,4.59l4.695,5.909h-1.485l-4.034-5.085l-2.235,2.266v2.819h-1.185
				V81.818z"/>
			<path d="M383.636,81.818h7.589v1.08h-6.404v3.584h5.729v1.08h-5.729v3.675h6.479v1.08h-7.664V81.818z"/>
			<path d="M393.686,81.818h1.109l6.615,8.414v-8.414h1.154v10.499h-0.944l-6.78-8.609v8.609h-1.154V81.818z"/>
			<path d="M405.64,81.818h1.185v10.499h-1.185V81.818z"/>
			<path d="M409.42,91.522l6.795-8.64h-6.57v-1.064h8.19v0.795l-6.81,8.64h6.81v1.064h-8.415V91.522z"/>
			<path d="M424.18,81.743h1.109l4.785,10.574h-1.275l-1.229-2.774h-5.715l-1.245,2.774h-1.215L424.18,81.743z M427.104,88.463
				l-2.385-5.34l-2.4,5.34H427.104z"/>
			<path d="M433.569,82.913h-3.524v-1.095h8.249v1.095h-3.524v9.404h-1.2V82.913z"/>
			<path d="M440.619,81.818h1.185v10.499h-1.185V81.818z"/>
			<path d="M444.414,87.097v-0.03c0-2.895,2.176-5.43,5.37-5.43c3.195,0,5.34,2.505,5.34,5.4v0.029c0,2.896-2.175,5.431-5.37,5.431
				C446.56,92.498,444.414,89.993,444.414,87.097z M453.895,87.097v-0.03c0-2.385-1.74-4.334-4.141-4.334
				c-2.399,0-4.109,1.92-4.109,4.305v0.029c0,2.386,1.74,4.335,4.14,4.335C452.185,91.402,453.895,89.482,453.895,87.097z"/>
			<path d="M457.63,81.818h1.109l6.615,8.414v-8.414h1.154v10.499h-0.944l-6.78-8.609v8.609h-1.154V81.818z"/>
			<path d="M358.645,114.788l0.735-0.87c1.095,0.989,2.145,1.484,3.6,1.484c1.41,0,2.34-0.75,2.34-1.784v-0.03
				c0-0.976-0.525-1.53-2.729-1.995c-2.415-0.525-3.525-1.305-3.525-3.03v-0.029c0-1.65,1.455-2.865,3.45-2.865
				c1.529,0,2.625,0.436,3.689,1.29l-0.689,0.915c-0.976-0.795-1.95-1.14-3.03-1.14c-1.365,0-2.235,0.75-2.235,1.694v0.03
				c0,0.99,0.54,1.545,2.851,2.04c2.34,0.51,3.42,1.365,3.42,2.97v0.03c0,1.8-1.5,2.97-3.585,2.97
				C361.27,116.468,359.904,115.913,358.645,114.788z"/>
			<path d="M371.484,106.913h-3.524v-1.095h8.249v1.095h-3.524v9.404h-1.2V106.913z"/>
			<path d="M377.243,111.097v-0.03c0-2.895,2.176-5.43,5.37-5.43c3.195,0,5.34,2.505,5.34,5.4v0.029c0,2.896-2.175,5.431-5.37,5.431
				C379.389,116.498,377.243,113.993,377.243,111.097z M386.724,111.097v-0.03c0-2.385-1.74-4.334-4.141-4.334
				c-2.399,0-4.109,1.92-4.109,4.305v0.029c0,2.386,1.74,4.335,4.14,4.335C385.014,115.402,386.724,113.482,386.724,111.097z"/>
			<path d="M390.459,105.818h3.93c2.37,0,3.93,1.26,3.93,3.329v0.03c0,2.265-1.89,3.435-4.125,3.435h-2.55v3.705h-1.185V105.818z
				 M394.238,111.533c1.74,0,2.88-0.931,2.88-2.311v-0.029c0-1.5-1.125-2.28-2.819-2.28h-2.655v4.62H394.238z"/>
			<path d="M399.594,105.818h1.29l3,8.744l2.88-8.774h0.975l2.88,8.774l3-8.744h1.245l-3.75,10.574h-1.005l-2.88-8.52l-2.895,8.52
				h-0.99L399.594,105.818z"/>
			<path d="M416.003,111.097v-0.03c0-2.895,2.176-5.43,5.37-5.43c3.195,0,5.34,2.505,5.34,5.4v0.029c0,2.896-2.175,5.431-5.37,5.431
				C418.148,116.498,416.003,113.993,416.003,111.097z M425.483,111.097v-0.03c0-2.385-1.74-4.334-4.141-4.334
				c-2.399,0-4.109,1.92-4.109,4.305v0.029c0,2.386,1.74,4.335,4.14,4.335C423.773,115.402,425.483,113.482,425.483,111.097z"/>
			<path d="M429.219,105.818h4.515c1.29,0,2.324,0.39,2.984,1.05c0.51,0.51,0.811,1.245,0.811,2.069v0.03
				c0,1.74-1.2,2.76-2.851,3.06l3.226,4.29h-1.455l-3.045-4.079h-3v4.079h-1.185V105.818z M433.628,111.173
				c1.575,0,2.7-0.81,2.7-2.16v-0.029c0-1.29-0.99-2.07-2.685-2.07h-3.24v4.26H433.628z"/>
			<path d="M440.063,105.818h3.645c3.3,0,5.58,2.265,5.58,5.22v0.029c0,2.955-2.28,5.25-5.58,5.25h-3.645V105.818z M441.248,106.913
				v8.31h2.46c2.655,0,4.35-1.8,4.35-4.125v-0.03c0-2.324-1.694-4.154-4.35-4.154H441.248z"/>
			<path d="M450.952,114.788l0.735-0.87c1.095,0.989,2.145,1.484,3.6,1.484c1.41,0,2.34-0.75,2.34-1.784v-0.03
				c0-0.976-0.525-1.53-2.729-1.995c-2.415-0.525-3.525-1.305-3.525-3.03v-0.029c0-1.65,1.455-2.865,3.45-2.865
				c1.529,0,2.625,0.436,3.689,1.29l-0.689,0.915c-0.976-0.795-1.95-1.14-3.03-1.14c-1.365,0-2.234,0.75-2.234,1.694v0.03
				c0,0.99,0.539,1.545,2.85,2.04c2.34,0.51,3.42,1.365,3.42,2.97v0.03c0,1.8-1.5,2.97-3.585,2.97
				C453.577,116.468,452.212,115.913,450.952,114.788z"/>
		</g>
	</g>
</g>
</svg>
